# Wavefront Obj file
# 
# verts: 100 uv-s: 196
mtllib Road Cone UV.mtl

g default

v -89.058975 0.305558 -24.832115
v -89.458328 0.305558 -25.615915
v -90.080368 0.305558 -26.237944
v -90.864166 0.305558 -26.637310
v -91.733017 0.305558 -26.774925
v -92.601860 0.305558 -26.637310
v -93.385674 0.305558 -26.237944
v -94.007690 0.305558 -25.615915
v -94.407051 0.305558 -24.832115
v -94.544678 0.305558 -23.963266
v -94.407051 0.305558 -23.094416
v -94.007683 0.305558 -22.310619
v -93.385674 0.305558 -21.688587
v -92.601860 0.305558 -21.289223
v -91.733017 0.305558 -21.151613
v -90.864166 0.305558 -21.289223
v -90.080368 0.305558 -21.688587
v -89.458344 0.305558 -22.310619
v -89.058975 0.305558 -23.094416
v -88.921364 0.305558 -23.963266
v -91.465622 9.209727 -24.050152
v -91.505547 9.209727 -24.128531
v -91.567764 9.209727 -24.190737
v -91.646126 9.209727 -24.230671
v -91.733017 9.209727 -24.244431
v -91.819893 9.209727 -24.230671
v -91.898285 9.209727 -24.190737
v -91.960480 9.209727 -24.128531
v -92.000427 9.209727 -24.050152
v -92.014175 9.209727 -23.963266
v -92.000427 9.209727 -23.876379
v -91.960480 9.209727 -23.798004
v -91.898285 9.209727 -23.735798
v -91.819893 9.209727 -23.695860
v -91.733017 9.209727 -23.682100
v -91.646126 9.209727 -23.695860
v -91.567764 9.209727 -23.735798
v -91.505547 9.209727 -23.798004
v -91.465622 9.209727 -23.876379
v -91.451851 9.209727 -23.963266
v -88.921364 -0.221962 -23.963266
v -89.058975 -0.221962 -24.832115
v -89.058975 -0.221962 -23.094416
v -89.458344 -0.221962 -22.310619
v -90.080368 -0.221962 -21.688587
v -90.864166 -0.221962 -21.289223
v -91.733017 -0.221962 -21.151613
v -92.601860 -0.221962 -21.289223
v -93.385674 -0.221962 -21.688587
v -94.007683 -0.221962 -22.310619
v -94.407051 -0.221962 -23.094416
v -94.544678 -0.221962 -23.963266
v -94.407051 -0.221962 -24.832115
v -94.007690 -0.221962 -25.615915
v -93.385674 -0.221962 -26.237944
v -92.601860 -0.221962 -26.637310
v -91.733017 -0.221962 -26.774925
v -90.864166 -0.221962 -26.637310
v -90.080368 -0.221962 -26.237944
v -89.458328 -0.221962 -25.615915
v -87.898857 0.305558 -23.963266
v -88.086517 0.305558 -25.148087
v -87.898857 -0.221962 -23.963266
v -88.086517 -0.221962 -25.148087
v -88.086517 0.305558 -22.778444
v -88.086517 -0.221962 -22.778444
v -88.631126 0.305558 -21.709604
v -88.631126 -0.221962 -21.709604
v -89.479347 0.305558 -20.861364
v -89.479347 -0.221962 -20.861364
v -90.548180 0.305558 -20.316765
v -90.548180 -0.221962 -20.316765
v -91.733017 0.305558 -20.129107
v -91.733017 -0.221962 -20.129107
v -92.917839 0.305558 -20.316765
v -92.917839 -0.221962 -20.316765
v -93.986687 0.305558 -20.861364
v -93.986687 -0.221962 -20.861364
v -94.834892 0.305558 -21.709604
v -94.834892 -0.221962 -21.709604
v -95.379509 0.305558 -22.778444
v -95.379509 -0.221962 -22.778444
v -95.567177 0.305558 -23.963266
v -95.567177 -0.221962 -23.963266
v -95.379509 0.305558 -25.148087
v -95.379509 -0.221962 -25.148087
v -94.834915 0.305558 -26.216930
v -94.834915 -0.221962 -26.216930
v -93.986687 0.305558 -27.065168
v -93.986687 -0.221962 -27.065168
v -92.917839 0.305558 -27.609768
v -92.917839 -0.221962 -27.609768
v -91.733017 0.305558 -27.797432
v -91.733017 -0.221962 -27.797432
v -90.548180 0.305558 -27.609768
v -90.548180 -0.221962 -27.609768
v -89.479347 0.305558 -27.065168
v -89.479347 -0.221962 -27.065168
v -88.631111 0.305558 -26.216930
v -88.631111 -0.221962 -26.216930
# 100 positions

vt 0.292751 0.081576
vt 0.246032 0.066396
vt 0.196909 0.066396
vt 0.150191 0.081575
vt 0.110449 0.110449
vt 0.081575 0.150190
vt 0.066396 0.196909
vt 0.066396 0.246031
vt 0.081575 0.292751
vt 0.110449 0.332491
vt 0.150190 0.361365
vt 0.196909 0.376546
vt 0.246032 0.376546
vt 0.292751 0.361366
vt 0.332492 0.332493
vt 0.361366 0.292751
vt 0.376545 0.246032
vt 0.376545 0.196909
vt 0.361366 0.150191
vt 0.332492 0.110449
vt 0.036610 0.036610
vt 0.039497 0.032636
vt 0.041015 0.027964
vt 0.041015 0.023051
vt 0.039498 0.018380
vt 0.036610 0.014406
vt 0.032637 0.011519
vt 0.027964 0.010000
vt 0.023052 0.010000
vt 0.018380 0.011518
vt 0.014406 0.014406
vt 0.011518 0.018379
vt 0.010001 0.023051
vt 0.010000 0.027963
vt 0.011518 0.032636
vt 0.014405 0.036609
vt 0.018380 0.039497
vt 0.023051 0.041015
vt 0.027964 0.041015
vt 0.032635 0.039497
vt 0.953915 0.105919
vt 0.945551 0.057514
vt 0.440415 0.167234
vt 0.441251 0.172075
vt 0.933081 0.010000
vt 0.439168 0.162483
vt 0.302098 0.751734
vt 0.304198 0.800813
vt 0.819222 0.756643
vt 0.819011 0.751734
vt 0.310484 0.849532
vt 0.819850 0.761514
vt 0.320910 0.897536
vt 0.820893 0.766314
vt 0.335401 0.944472
vt 0.822342 0.771007
vt 0.353849 0.990000
vt 0.824187 0.775561
vt 0.292049 0.440174
vt 0.242971 0.442274
vt 0.287141 0.957298
vt 0.292049 0.957088
vt 0.194252 0.448561
vt 0.282269 0.957927
vt 0.146248 0.458987
vt 0.277469 0.958970
vt 0.099311 0.473478
vt 0.272775 0.960418
vt 0.053784 0.491926
vt 0.268222 0.962263
vt 0.010000 0.514197
vt 0.263844 0.964490
vt 0.924274 0.272337
vt 0.875196 0.274437
vt 0.919366 0.789460
vt 0.924274 0.789250
vt 0.826477 0.280723
vt 0.914494 0.790089
vt 0.778473 0.291149
vt 0.909693 0.791131
vt 0.731536 0.305639
vt 0.905001 0.792580
vt 0.686009 0.324088
vt 0.900447 0.794425
vt 0.958113 0.203985
vt 0.958113 0.154862
vt 0.441671 0.176969
vt 0.441671 0.181881
vt 0.575370 0.237158
vt 0.642357 0.237158
vt 0.642357 0.207701
vt 0.575370 0.207701
vt 0.709345 0.237158
vt 0.709345 0.207701
vt 0.776332 0.237158
vt 0.776332 0.207701
vt 0.843319 0.237159
vt 0.843319 0.207701
vt 0.392549 0.078026
vt 0.459536 0.078026
vt 0.459536 0.048568
vt 0.392549 0.048568
vt 0.526524 0.078026
vt 0.526524 0.048568
vt 0.593511 0.078026
vt 0.593511 0.048568
vt 0.660499 0.078026
vt 0.660499 0.048568
vt 0.752053 0.010002
vt 0.685067 0.010001
vt 0.685067 0.039459
vt 0.752053 0.039460
vt 0.618080 0.010000
vt 0.618080 0.039458
vt 0.551092 0.010000
vt 0.551092 0.039458
vt 0.484105 0.010001
vt 0.484105 0.039458
vt 0.417117 0.010001
vt 0.417118 0.039459
vt 0.350130 0.010002
vt 0.350131 0.039460
vt 0.656247 0.501366
vt 0.589260 0.501366
vt 0.589260 0.530824
vt 0.656247 0.530824
vt 0.522272 0.501366
vt 0.522272 0.530824
vt 0.455284 0.501366
vt 0.455284 0.530824
vt 0.388297 0.501366
vt 0.388297 0.530824
vt 0.441396 0.237159
vt 0.508383 0.237159
vt 0.508383 0.207701
vt 0.441396 0.207701
vt 0.458529 0.392040
vt 0.505247 0.376860
vt 0.496315 0.320464
vt 0.432607 0.341165
vt 0.318673 0.030700
vt 0.254965 0.010000
vt 0.554371 0.376859
vt 0.563302 0.320464
vt 0.187977 0.010000
vt 0.601089 0.392040
vt 0.627011 0.341165
vt 0.124269 0.030700
vt 0.640830 0.420913
vt 0.681204 0.380538
vt 0.070075 0.070073
vt 0.669704 0.460654
vt 0.720578 0.434731
vt 0.030701 0.124267
vt 0.684884 0.507373
vt 0.741279 0.498440
vt 0.010000 0.187976
vt 0.684885 0.556495
vt 0.741280 0.565427
vt 0.010000 0.254964
vt 0.669705 0.603215
vt 0.720580 0.629136
vt 0.030700 0.318673
vt 0.640831 0.642955
vt 0.681206 0.683329
vt 0.070074 0.372865
vt 0.601090 0.671830
vt 0.627012 0.722705
vt 0.124268 0.412240
vt 0.554371 0.687010
vt 0.563303 0.743406
vt 0.187976 0.432942
vt 0.505248 0.687010
vt 0.496315 0.743405
vt 0.254964 0.432941
vt 0.458530 0.671830
vt 0.432607 0.722705
vt 0.318673 0.412241
vt 0.418788 0.642956
vt 0.378413 0.683331
vt 0.372867 0.372867
vt 0.389915 0.603214
vt 0.339039 0.629137
vt 0.412241 0.318673
vt 0.374735 0.556496
vt 0.318339 0.565428
vt 0.432941 0.254964
vt 0.374735 0.507373
vt 0.318339 0.498440
vt 0.432941 0.187976
vt 0.389914 0.460654
vt 0.339039 0.434732
vt 0.412241 0.124268
vt 0.418788 0.420912
vt 0.378413 0.380538
vt 0.372867 0.070074
# 196 texture coordinates

vn -0.000000 -1.000000 -0.000000
vn -0.000000 -1.000000 -0.000000
vn -0.000000 -1.000000 -0.000000
vn -0.000000 -1.000000 -0.000000
vn -0.000000 -1.000000 -0.000000
vn -0.000000 -1.000000 -0.000000
vn -0.000000 -1.000000 -0.000000
vn -0.000000 -1.000000 -0.000000
vn -0.000000 -1.000000 -0.000000
vn -0.000000 -1.000000 -0.000000
vn -0.000000 -1.000000 -0.000000
vn -0.000000 -1.000000 -0.000000
vn -0.000000 -1.000000 -0.000000
vn -0.000000 -1.000000 -0.000000
vn -0.000000 -1.000000 -0.000000
vn -0.000000 -1.000000 -0.000000
vn -0.000000 -1.000000 -0.000000
vn -0.000000 -1.000000 -0.000000
vn -0.000000 -1.000000 -0.000000
vn -0.000000 -1.000000 -0.000000
vn 0.961518 0.274742 -0.000000
vn 0.914461 0.274741 -0.297116
vn 0.777881 0.274743 -0.565171
vn 0.565179 0.274741 -0.777875
vn 0.297125 0.274742 -0.914458
vn -0.000000 0.274742 -0.961518
vn -0.297100 0.274741 -0.914466
vn -0.565159 0.274742 -0.777889
vn -0.777881 0.274741 -0.565171
vn -0.914461 0.274741 -0.297116
vn -0.961518 0.274741 -0.000000
vn -0.914460 0.274741 0.297119
vn -0.777874 0.274740 0.565182
vn -0.565173 0.274742 0.777879
vn -0.297119 0.274741 0.914460
vn -0.000000 0.274741 0.961518
vn 0.297144 0.274742 0.914452
vn 0.565193 0.274741 0.777865
vn 0.777874 0.274742 0.565181
vn 0.914460 0.274741 0.297119
vn 0.961910 0.273366 -0.000000
vn 0.914833 0.273367 -0.297240
vn 0.778202 0.273367 -0.565396
vn 0.565394 0.273367 -0.778203
vn 0.297248 0.273367 -0.914830
vn -0.000000 0.273367 -0.961910
vn -0.297247 0.273367 -0.914831
vn -0.565396 0.273367 -0.778202
vn -0.778206 0.273367 -0.565390
vn -0.914830 0.273365 -0.297251
vn -0.961910 0.273368 -0.000000
vn -0.914828 0.273365 0.297255
vn -0.778206 0.273366 0.565391
vn -0.565399 0.273367 0.778200
vn -0.297243 0.273367 0.914832
vn -0.000000 0.273366 0.961910
vn 0.297244 0.273366 0.914832
vn 0.565399 0.273367 0.778200
vn 0.778202 0.273366 0.565396
vn 0.914830 0.273367 0.297247
vn 0.987688 -0.000000 -0.156437
vn 0.987688 -0.000000 -0.156437
vn 0.987688 -0.000000 -0.156437
vn 0.987688 -0.000000 -0.156437
vn 0.987688 -0.000000 0.156437
vn 0.987688 -0.000000 0.156437
vn 0.987688 -0.000000 0.156437
vn 0.987688 -0.000000 0.156437
vn 0.891004 -0.000000 0.453996
vn 0.891004 -0.000000 0.453996
vn 0.891004 -0.000000 0.453996
vn 0.891004 -0.000000 0.453996
vn 0.707115 -0.000000 0.707099
vn 0.707115 -0.000000 0.707099
vn 0.707115 -0.000000 0.707099
vn 0.707115 -0.000000 0.707099
vn 0.453992 -0.000000 0.891006
vn 0.453992 -0.000000 0.891006
vn 0.453992 -0.000000 0.891006
vn 0.453992 -0.000000 0.891006
vn 0.156433 -0.000000 0.987688
vn 0.156433 -0.000000 0.987688
vn 0.156433 -0.000000 0.987688
vn 0.156433 -0.000000 0.987688
vn -0.156435 -0.000000 0.987688
vn -0.156435 -0.000000 0.987688
vn -0.156435 -0.000000 0.987688
vn -0.156435 -0.000000 0.987688
vn -0.453987 -0.000000 0.891008
vn -0.453987 -0.000000 0.891008
vn -0.453987 -0.000000 0.891008
vn -0.453987 -0.000000 0.891008
vn -0.707121 -0.000000 0.707092
vn -0.707121 -0.000000 0.707092
vn -0.707121 -0.000000 0.707092
vn -0.707121 -0.000000 0.707092
vn -0.891001 -0.000000 0.454001
vn -0.891001 -0.000000 0.454001
vn -0.891001 -0.000000 0.454001
vn -0.891001 -0.000000 0.454001
vn -0.987687 -0.000000 0.156443
vn -0.987687 -0.000000 0.156443
vn -0.987687 -0.000000 0.156443
vn -0.987687 -0.000000 0.156443
vn -0.987687 -0.000000 -0.156443
vn -0.987687 -0.000000 -0.156443
vn -0.987687 -0.000000 -0.156443
vn -0.987687 -0.000000 -0.156443
vn -0.891010 -0.000000 -0.453984
vn -0.891010 -0.000000 -0.453984
vn -0.891010 -0.000000 -0.453984
vn -0.891010 -0.000000 -0.453984
vn -0.707111 -0.000000 -0.707103
vn -0.707111 -0.000000 -0.707103
vn -0.707111 -0.000000 -0.707103
vn -0.707111 -0.000000 -0.707103
vn -0.453987 -0.000000 -0.891008
vn -0.453987 -0.000000 -0.891008
vn -0.453987 -0.000000 -0.891008
vn -0.453987 -0.000000 -0.891008
vn -0.156440 -0.000000 -0.987687
vn -0.156440 -0.000000 -0.987687
vn -0.156440 -0.000000 -0.987687
vn -0.156440 -0.000000 -0.987687
vn 0.156438 -0.000000 -0.987688
vn 0.156438 -0.000000 -0.987688
vn 0.156438 -0.000000 -0.987688
vn 0.156438 -0.000000 -0.987688
vn 0.453992 -0.000000 -0.891006
vn 0.453992 -0.000000 -0.891006
vn 0.453992 -0.000000 -0.891006
vn 0.453992 -0.000000 -0.891006
vn 0.707108 -0.000000 -0.707106
vn 0.707108 -0.000000 -0.707106
vn 0.707108 -0.000000 -0.707106
vn 0.707108 -0.000000 -0.707106
vn 0.891010 -0.000000 -0.453984
vn 0.891010 -0.000000 -0.453984
vn 0.891010 -0.000000 -0.453984
vn 0.891010 -0.000000 -0.453984
vn -0.000000 1.000000 -0.000000
vn -0.000000 1.000000 -0.000000
vn -0.000000 1.000000 -0.000000
vn -0.000000 1.000000 -0.000000
vn -0.000000 -1.000000 -0.000000
vn -0.000000 -1.000000 -0.000000
vn -0.000000 1.000000 -0.000000
vn -0.000000 1.000000 -0.000000
vn -0.000000 -1.000000 -0.000000
vn -0.000000 1.000000 -0.000000
vn -0.000000 1.000000 -0.000000
vn -0.000000 -1.000000 -0.000000
vn -0.000000 1.000000 -0.000000
vn -0.000000 1.000000 -0.000000
vn -0.000000 -1.000000 -0.000000
vn -0.000000 1.000000 -0.000000
vn -0.000000 1.000000 -0.000000
vn -0.000000 -1.000000 -0.000000
vn -0.000000 1.000000 -0.000000
vn -0.000000 1.000000 -0.000000
vn -0.000000 -1.000000 -0.000000
vn -0.000000 1.000000 -0.000000
vn -0.000000 1.000000 -0.000000
vn -0.000000 -1.000000 -0.000000
vn -0.000000 1.000000 -0.000000
vn -0.000000 1.000000 -0.000000
vn -0.000000 -1.000000 -0.000000
vn -0.000000 1.000000 -0.000000
vn -0.000000 1.000000 -0.000000
vn -0.000000 -1.000000 -0.000000
vn -0.000000 1.000000 -0.000000
vn -0.000000 1.000000 -0.000000
vn -0.000000 -1.000000 -0.000000
vn -0.000000 1.000000 -0.000000
vn -0.000000 1.000000 -0.000000
vn -0.000000 -1.000000 -0.000000
vn -0.000000 1.000000 -0.000000
vn -0.000000 1.000000 -0.000000
vn -0.000000 -1.000000 -0.000000
vn -0.000000 1.000000 -0.000000
vn -0.000000 1.000000 -0.000000
vn -0.000000 -1.000000 -0.000000
vn -0.000000 1.000000 -0.000000
vn -0.000000 1.000000 -0.000000
vn -0.000000 -1.000000 -0.000000
vn -0.000000 1.000000 -0.000000
vn -0.000000 1.000000 -0.000000
vn -0.000000 -1.000000 -0.000000
vn -0.000000 1.000000 -0.000000
vn -0.000000 1.000000 -0.000000
vn -0.000000 -1.000000 -0.000000
vn -0.000000 1.000000 -0.000000
vn -0.000000 1.000000 -0.000000
vn -0.000000 -1.000000 -0.000000
vn -0.000000 1.000000 -0.000000
vn -0.000000 1.000000 -0.000000
vn -0.000000 -1.000000 -0.000000
vn -0.000000 1.000000 -0.000000
vn -0.000000 1.000000 -0.000000
vn -0.000000 -1.000000 -0.000000
# 200 normals

g Road_Cone_6

# 0 positions

# 0 texture coordinates

# 0 normals

usemtl initialShadingGroup
s 1
f 42/1/1 41/2/2 43/3/3 44/4/4 45/5/5 46/6/6 47/7/7 48/8/8 49/9/9 50/10/10 51/11/11 52/12/12 53/13/13 54/14/14 55/15/15 56/16/16 57/17/17 58/18/18 59/19/19 60/20/20
f 41/2/2 42/1/1 64/141/145 63/142/146
f 43/3/3 41/2/2 63/142/146 66/145/149
f 44/4/4 43/3/3 66/145/149 68/148/152
f 45/5/5 44/4/4 68/148/152 70/151/155
f 46/6/6 45/5/5 70/151/155 72/154/158
f 47/7/7 46/6/6 72/154/158 74/157/161
f 48/8/8 47/7/7 74/157/161 76/160/164
f 49/9/9 48/8/8 76/160/164 78/163/167
f 50/10/10 49/9/9 78/163/167 80/166/170
f 51/11/11 50/10/10 80/166/170 82/169/173
f 52/12/12 51/11/11 82/169/173 84/172/176
f 53/13/13 52/12/12 84/172/176 86/175/179
f 54/14/14 53/13/13 86/175/179 88/178/182
f 55/15/15 54/14/14 88/178/182 90/181/185
f 56/16/16 55/15/15 90/181/185 92/184/188
f 57/17/17 56/16/16 92/184/188 94/187/191
f 58/18/18 57/17/17 94/187/191 96/190/194
f 59/19/19 58/18/18 96/190/194 98/193/197
f 60/20/20 59/19/19 98/193/197 100/196/200
f 42/1/1 60/20/20 100/196/200 64/141/145
s 2
f 40/21/21 21/22/22 22/23/23 23/24/24 24/25/25 25/26/26 26/27/27 27/28/28 28/29/29 29/30/30 30/31/31 31/32/32 32/33/33 33/34/34 34/35/35 35/36/36 36/37/37 37/38/38 38/39/39 39/40/40
f 20/41/41 1/42/42 21/43/22 40/44/21
f 1/42/42 2/45/43 22/46/23 21/43/22
f 2/47/43 3/48/44 23/49/24 22/50/23
f 3/48/44 4/51/45 24/52/25 23/49/24
f 4/51/45 5/53/46 25/54/26 24/52/25
f 5/53/46 6/55/47 26/56/27 25/54/26
f 6/55/47 7/57/48 27/58/28 26/56/27
f 7/59/48 8/60/49 28/61/29 27/62/28
f 8/60/49 9/63/50 29/64/30 28/61/29
f 9/63/50 10/65/51 30/66/31 29/64/30
f 10/65/51 11/67/52 31/68/32 30/66/31
f 11/67/52 12/69/53 32/70/33 31/68/32
f 12/69/53 13/71/54 33/72/34 32/70/33
f 13/73/54 14/74/55 34/75/35 33/76/34
f 14/74/55 15/77/56 35/78/36 34/75/35
f 15/77/56 16/79/57 36/80/37 35/78/36
f 16/79/57 17/81/58 37/82/38 36/80/37
f 17/81/58 18/83/59 38/84/39 37/82/38
f 18/85/59 19/86/60 39/87/40 38/88/39
f 19/86/60 20/41/41 40/44/21 39/87/40
s 3
f 62/89/61 61/90/62 63/91/63 64/92/64
s 4
f 61/90/65 65/93/66 66/94/67 63/91/68
s 5
f 65/93/69 67/95/70 68/96/71 66/94/72
s 6
f 67/95/73 69/97/74 70/98/75 68/96/76
s 7
f 69/99/77 71/100/78 72/101/79 70/102/80
s 8
f 71/100/81 73/103/82 74/104/83 72/101/84
s 9
f 73/103/85 75/105/86 76/106/87 74/104/88
s 10
f 75/105/89 77/107/90 78/108/91 76/106/92
s 11
f 77/109/93 79/110/94 80/111/95 78/112/96
s 12
f 79/110/97 81/113/98 82/114/99 80/111/100
s 13
f 81/113/101 83/115/102 84/116/103 82/114/104
s 14
f 83/115/105 85/117/106 86/118/107 84/116/108
s 15
f 85/117/109 87/119/110 88/120/111 86/118/112
s 16
f 87/119/113 89/121/114 90/122/115 88/120/116
s 17
f 89/123/117 91/124/118 92/125/119 90/126/120
s 18
f 91/124/121 93/127/122 94/128/123 92/125/124
s 19
f 93/127/125 95/129/126 96/130/127 94/128/128
s 20
f 95/129/129 97/131/130 98/132/131 96/130/132
s 21
f 97/133/133 99/134/134 100/135/135 98/136/136
s 22
f 99/134/137 62/89/138 64/92/139 100/135/140
s 23
f 1/137/141 20/138/142 61/139/143 62/140/144
f 20/138/142 19/143/147 65/144/148 61/139/143
f 19/143/147 18/146/150 67/147/151 65/144/148
f 18/146/150 17/149/153 69/150/154 67/147/151
f 17/149/153 16/152/156 71/153/157 69/150/154
f 16/152/156 15/155/159 73/156/160 71/153/157
f 15/155/159 14/158/162 75/159/163 73/156/160
f 14/158/162 13/161/165 77/162/166 75/159/163
f 13/161/165 12/164/168 79/165/169 77/162/166
f 12/164/168 11/167/171 81/168/172 79/165/169
f 11/167/171 10/170/174 83/171/175 81/168/172
f 10/170/174 9/173/177 85/174/178 83/171/175
f 9/173/177 8/176/180 87/177/181 85/174/178
f 8/176/180 7/179/183 89/180/184 87/177/181
f 7/179/183 6/182/186 91/183/187 89/180/184
f 6/182/186 5/185/189 93/186/190 91/183/187
f 5/185/189 4/188/192 95/189/193 93/186/190
f 4/188/192 3/191/195 97/192/196 95/189/193
f 3/191/195 2/194/198 99/195/199 97/192/196
f 2/194/198 1/137/141 62/140/144 99/195/199

# 82 faces
