# Wavefront Obj file
# 
# verts: 24 uv-s: 72
mtllib Road block wall UV.mtl

g default

v 30.538654 -0.386138 -18.123005
v 33.101742 -0.386138 -18.123005
v 30.538654 15.721112 -18.123005
v 33.101742 15.721112 -18.123005
v 30.538654 15.721112 -45.542198
v 33.101742 15.721112 -45.542198
v 30.538654 -0.386138 -45.542198
v 33.101742 -0.386138 -45.542198
v 33.104168 0.265526 -43.180237
v 33.104168 0.265526 -45.743317
v 33.104168 15.721112 -43.180237
v 33.104168 15.721112 -45.743317
v -110.232803 15.721112 -43.180237
v -110.232803 15.721112 -45.743317
v -110.232803 0.265526 -43.180237
v -110.232803 0.265526 -45.743317
v -110.171951 0.265526 -42.798790
v -107.608871 0.265526 -42.798790
v -110.171951 15.721112 -42.798790
v -107.608871 15.721112 -42.798790
v -110.171951 15.721112 -124.126289
v -107.608871 15.721112 -124.126289
v -110.171951 0.265526 -124.126289
v -107.608871 0.265526 -124.126289
# 24 positions

vt 0.353033 0.643031
vt 0.353033 0.625507
vt 0.242908 0.625507
vt 0.242908 0.643031
vt 0.290683 0.613171
vt 0.290683 0.595647
vt 0.103217 0.595647
vt 0.103217 0.613171
vt 0.520605 0.595611
vt 0.503081 0.595611
vt 0.503081 0.705737
vt 0.520605 0.705737
vt 0.490093 0.613171
vt 0.490093 0.595647
vt 0.302627 0.595647
vt 0.302627 0.613171
vt 0.577695 0.242908
vt 0.577695 0.430373
vt 0.687821 0.430373
vt 0.687821 0.242908
vt 0.687821 0.723001
vt 0.687821 0.535535
vt 0.577695 0.535535
vt 0.577695 0.723001
vt 0.469843 0.643031
vt 0.469843 0.625507
vt 0.364173 0.625507
vt 0.364173 0.643031
vt 0.990000 0.493731
vt 0.990000 0.476207
vt 0.010000 0.476207
vt 0.010000 0.493731
vt 0.115670 0.643031
vt 0.115670 0.625507
vt 0.010000 0.625507
vt 0.010000 0.643031
vt 0.990000 0.523591
vt 0.990000 0.506067
vt 0.010000 0.506067
vt 0.010000 0.523591
vt 0.010000 0.115670
vt 0.990000 0.115670
vt 0.990000 0.010000
vt 0.010000 0.010000
vt 0.990000 0.126454
vt 0.010000 0.126454
vt 0.010000 0.232124
vt 0.990000 0.232124
vt 0.681849 0.460885
vt 0.681849 0.443361
vt 0.576178 0.443361
vt 0.576178 0.460885
vt 0.566039 0.553451
vt 0.566039 0.535927
vt 0.010000 0.535927
vt 0.010000 0.553451
vt 0.232124 0.643031
vt 0.232124 0.625507
vt 0.126454 0.625507
vt 0.126454 0.643031
vt 0.566039 0.583311
vt 0.566039 0.565787
vt 0.010000 0.565787
vt 0.010000 0.583311
vt 0.010000 0.348578
vt 0.566039 0.348578
vt 0.566039 0.242908
vt 0.010000 0.242908
vt 0.566039 0.359361
vt 0.010000 0.359361
vt 0.010000 0.465032
vt 0.566039 0.465032
# 72 texture coordinates

vn -0.000000 -0.000000 1.000000
vn -0.000000 -0.000000 1.000000
vn -0.000000 -0.000000 1.000000
vn -0.000000 -0.000000 1.000000
vn -0.000000 1.000000 -0.000000
vn -0.000000 1.000000 -0.000000
vn -0.000000 1.000000 -0.000000
vn -0.000000 1.000000 -0.000000
vn -0.000000 -0.000000 -1.000000
vn -0.000000 -0.000000 -1.000000
vn -0.000000 -0.000000 -1.000000
vn -0.000000 -0.000000 -1.000000
vn -0.000000 -1.000000 -0.000000
vn -0.000000 -1.000000 -0.000000
vn -0.000000 -1.000000 -0.000000
vn -0.000000 -1.000000 -0.000000
vn 1.000000 -0.000000 -0.000000
vn 1.000000 -0.000000 -0.000000
vn 1.000000 -0.000000 -0.000000
vn 1.000000 -0.000000 -0.000000
vn -1.000000 -0.000000 -0.000000
vn -1.000000 -0.000000 -0.000000
vn -1.000000 -0.000000 -0.000000
vn -1.000000 -0.000000 -0.000000
vn 1.000000 -0.000000 -0.000000
vn 1.000000 -0.000000 -0.000000
vn 1.000000 -0.000000 -0.000000
vn 1.000000 -0.000000 -0.000000
vn -0.000000 1.000000 -0.000000
vn -0.000000 1.000000 -0.000000
vn -0.000000 1.000000 -0.000000
vn -0.000000 1.000000 -0.000000
vn -1.000000 -0.000000 -0.000000
vn -1.000000 -0.000000 -0.000000
vn -1.000000 -0.000000 -0.000000
vn -1.000000 -0.000000 -0.000000
vn -0.000000 -1.000000 -0.000000
vn -0.000000 -1.000000 -0.000000
vn -0.000000 -1.000000 -0.000000
vn -0.000000 -1.000000 -0.000000
vn -0.000000 -0.000000 -1.000000
vn -0.000000 -0.000000 -1.000000
vn -0.000000 -0.000000 -1.000000
vn -0.000000 -0.000000 -1.000000
vn -0.000000 -0.000000 1.000000
vn -0.000000 -0.000000 1.000000
vn -0.000000 -0.000000 1.000000
vn -0.000000 -0.000000 1.000000
vn -0.000000 -0.000000 1.000000
vn -0.000000 -0.000000 1.000000
vn -0.000000 -0.000000 1.000000
vn -0.000000 -0.000000 1.000000
vn -0.000000 1.000000 -0.000000
vn -0.000000 1.000000 -0.000000
vn -0.000000 1.000000 -0.000000
vn -0.000000 1.000000 -0.000000
vn -0.000000 -0.000000 -1.000000
vn -0.000000 -0.000000 -1.000000
vn -0.000000 -0.000000 -1.000000
vn -0.000000 -0.000000 -1.000000
vn -0.000000 -1.000000 -0.000000
vn -0.000000 -1.000000 -0.000000
vn -0.000000 -1.000000 -0.000000
vn -0.000000 -1.000000 -0.000000
vn 1.000000 -0.000000 -0.000000
vn 1.000000 -0.000000 -0.000000
vn 1.000000 -0.000000 -0.000000
vn 1.000000 -0.000000 -0.000000
vn -1.000000 -0.000000 -0.000000
vn -1.000000 -0.000000 -0.000000
vn -1.000000 -0.000000 -0.000000
vn -1.000000 -0.000000 -0.000000
# 72 normals

g RoadBlock_Wall1

# 0 positions

# 0 texture coordinates

# 0 normals

usemtl initialShadingGroup
s 1
f 1/1/1 2/2/2 4/3/3 3/4/4
s 2
f 3/5/5 4/6/6 6/7/7 5/8/8
s 3
f 5/9/9 6/10/10 8/11/11 7/12/12
s 4
f 7/13/13 8/14/14 2/15/15 1/16/16
s 5
f 2/17/17 8/18/18 6/19/19 4/20/20
s 6
f 7/21/21 1/22/22 3/23/23 5/24/24
s 7
f 9/25/25 10/26/26 12/27/27 11/28/28
s 8
f 11/29/29 12/30/30 14/31/31 13/32/32
s 9
f 13/33/33 14/34/34 16/35/35 15/36/36
s 10
f 15/37/37 16/38/38 10/39/39 9/40/40
s 11
f 10/41/41 16/42/42 14/43/43 12/44/44
s 12
f 15/45/45 9/46/46 11/47/47 13/48/48
s 13
f 17/49/49 18/50/50 20/51/51 19/52/52
s 14
f 19/53/53 20/54/54 22/55/55 21/56/56
s 15
f 21/57/57 22/58/58 24/59/59 23/60/60
s 16
f 23/61/61 24/62/62 18/63/63 17/64/64
s 17
f 18/65/65 24/66/66 22/67/67 20/68/68
s 18
f 23/69/69 17/70/70 19/71/71 21/72/72

# 18 faces
