# Wavefront Obj file
# 
# verts: 84 uv-s: 272
mtllib Sushi Counter UV.mtl

g default

v -33.642570 0.930660 0.850981
v -14.950475 0.930660 0.850981
v -33.642570 6.659351 0.850981
v -14.950475 6.659351 0.850981
v -33.642570 6.659351 -0.850981
v -14.950475 6.659351 -0.850981
v -33.642570 0.930660 -0.850981
v -14.950475 0.930660 -0.850981
v -33.642570 6.096045 0.850981
v -14.950475 6.096045 0.850981
v -14.950475 6.096045 -0.850981
v -33.642570 6.096045 -0.850981
v -33.642570 6.659351 -2.119191
v -14.950475 6.659351 -2.119191
v -14.950475 6.096045 -2.119191
v -33.642570 6.096045 -2.119191
v -33.642570 6.096045 2.349892
v -14.950475 6.096045 2.349892
v -14.950475 6.659351 2.349892
v -33.642570 6.659351 2.349892
v -31.288946 4.614120 -3.635066
v -31.288946 4.614120 -2.220852
v -29.874731 4.614120 -2.220852
v -29.874731 4.614120 -3.635065
v -31.288946 4.943319 -3.635066
v -31.288946 4.943319 -2.220852
v -29.874731 4.943319 -2.220852
v -29.874731 4.943319 -3.635065
v -30.369659 4.614120 -3.140140
v -30.794020 4.614120 -3.140140
v -30.369659 4.614120 -2.715777
v -30.794020 4.614120 -2.715777
v -30.369659 1.134773 -3.140140
v -30.794020 1.134773 -3.140140
v -30.369659 1.134773 -2.715777
v -30.794020 1.134773 -2.715777
v -26.830887 4.614120 -3.635066
v -26.830887 4.614120 -2.220852
v -25.416674 4.614120 -2.220852
v -25.416674 4.614120 -3.635065
v -26.830887 4.943319 -3.635066
v -26.830887 4.943319 -2.220852
v -25.416674 4.943319 -2.220852
v -25.416674 4.943319 -3.635065
v -25.911600 4.614120 -3.140140
v -26.335962 4.614120 -3.140140
v -25.911600 4.614120 -2.715777
v -26.335962 4.614120 -2.715777
v -25.911600 1.134773 -3.140140
v -26.335962 1.134773 -3.140140
v -25.911600 1.134773 -2.715777
v -26.335962 1.134773 -2.715777
v -22.540287 4.614120 -3.635066
v -22.540287 4.614120 -2.220852
v -21.126074 4.614120 -2.220852
v -21.126074 4.614120 -3.635065
v -22.540287 4.943319 -3.635066
v -22.540287 4.943319 -2.220852
v -21.126074 4.943319 -2.220852
v -21.126074 4.943319 -3.635065
v -21.621000 4.614120 -3.140140
v -22.045362 4.614120 -3.140140
v -21.621000 4.614120 -2.715777
v -22.045362 4.614120 -2.715777
v -21.621000 1.134773 -3.140140
v -22.045362 1.134773 -3.140140
v -21.621000 1.134773 -2.715777
v -22.045362 1.134773 -2.715777
v -18.484579 4.614120 -3.635066
v -18.484579 4.614120 -2.220852
v -17.070366 4.614120 -2.220852
v -17.070366 4.614120 -3.635065
v -18.484579 4.943319 -3.635066
v -18.484579 4.943319 -2.220852
v -17.070366 4.943319 -2.220852
v -17.070366 4.943319 -3.635065
v -17.565292 4.614120 -3.140140
v -17.989656 4.614120 -3.140140
v -17.565292 4.614120 -2.715777
v -17.989656 4.614120 -2.715777
v -17.565292 1.134773 -3.140140
v -17.989656 1.134773 -3.140140
v -17.565292 1.134773 -2.715777
v -17.989656 1.134773 -2.715777
# 84 positions

vt 0.990000 0.699805
vt 0.338188 0.699805
vt 0.338188 0.719448
vt 0.990000 0.719448
vt 0.661812 0.439037
vt 0.010000 0.439037
vt 0.010000 0.498387
vt 0.661812 0.498387
vt 0.990000 0.671748
vt 0.338188 0.671748
vt 0.338188 0.691391
vt 0.990000 0.691391
vt 0.010000 0.610453
vt 0.661812 0.610453
vt 0.661812 0.551104
vt 0.010000 0.551104
vt 0.029643 0.775400
vt 0.029643 0.716051
vt 0.010000 0.716051
vt 0.010000 0.775400
vt 0.238712 0.788980
vt 0.238712 0.729631
vt 0.219069 0.729631
vt 0.219069 0.788980
vt 0.010000 0.190122
vt 0.661812 0.190122
vt 0.661812 0.010000
vt 0.010000 0.010000
vt 0.209765 0.775400
vt 0.209765 0.716051
vt 0.010000 0.378507
vt 0.661812 0.378507
vt 0.661812 0.198384
vt 0.010000 0.198384
vt 0.418834 0.788979
vt 0.418834 0.729630
vt 0.010000 0.542610
vt 0.661812 0.542610
vt 0.029643 0.671827
vt 0.010000 0.671827
vt 0.010000 0.663467
vt 0.661812 0.663467
vt 0.661812 0.619243
vt 0.010000 0.619243
vt 0.219069 0.833204
vt 0.238712 0.833204
vt 0.669183 0.010000
vt 0.669183 0.661812
vt 0.721452 0.661812
vt 0.721452 0.010000
vt 0.010000 0.827669
vt 0.029644 0.827668
vt 0.661812 0.386769
vt 0.010000 0.386769
vt 0.238714 0.677363
vt 0.219071 0.677362
vt 0.730013 0.010000
vt 0.730013 0.059315
vt 0.741493 0.059315
vt 0.741493 0.010000
vt 0.774103 0.332658
vt 0.774103 0.381973
vt 0.785583 0.381973
vt 0.785583 0.332658
vt 0.794144 0.392781
vt 0.794144 0.442096
vt 0.805624 0.442096
vt 0.805624 0.392781
vt 0.805624 0.500215
vt 0.805624 0.450900
vt 0.794144 0.450900
vt 0.794144 0.500215
vt 0.593190 0.772342
vt 0.543875 0.772342
vt 0.543875 0.821656
vt 0.593190 0.821656
vt 0.774337 0.308600
vt 0.791595 0.325859
vt 0.791595 0.276544
vt 0.774337 0.293802
vt 0.476953 0.772341
vt 0.459694 0.789600
vt 0.459694 0.804397
vt 0.476953 0.821656
vt 0.444897 0.804397
vt 0.427637 0.821656
vt 0.444897 0.789600
vt 0.427637 0.772341
vt 0.182352 0.685378
vt 0.182352 0.670581
vt 0.167554 0.670581
vt 0.167554 0.685378
vt 0.038057 0.670581
vt 0.038057 0.685378
vt 0.159385 0.685378
vt 0.159385 0.670581
vt 0.159385 0.707423
vt 0.159385 0.692626
vt 0.038057 0.692626
vt 0.038057 0.707423
vt 0.548179 0.741493
vt 0.548179 0.726695
vt 0.426851 0.726695
vt 0.426851 0.741493
vt 0.679366 0.741493
vt 0.679366 0.726695
vt 0.558038 0.726695
vt 0.558038 0.741493
vt 0.823661 0.509563
vt 0.774345 0.509563
vt 0.774345 0.521043
vt 0.823661 0.521043
vt 0.796148 0.771554
vt 0.796148 0.820870
vt 0.807628 0.820870
vt 0.807628 0.771554
vt 0.298589 0.798152
vt 0.249273 0.798152
vt 0.249273 0.809632
vt 0.298589 0.809632
vt 0.307392 0.809632
vt 0.356708 0.809632
vt 0.356708 0.798152
vt 0.307392 0.798152
vt 0.535072 0.772341
vt 0.485756 0.772341
vt 0.485756 0.821656
vt 0.535072 0.821656
vt 0.266533 0.672127
vt 0.249273 0.689386
vt 0.298589 0.689386
vt 0.281330 0.672127
vt 0.249273 0.698181
vt 0.266533 0.715440
vt 0.281330 0.715440
vt 0.298589 0.698181
vt 0.709427 0.789591
vt 0.692168 0.772332
vt 0.677371 0.772332
vt 0.660112 0.789591
vt 0.735490 0.772332
vt 0.718230 0.789591
vt 0.767546 0.789591
vt 0.750287 0.772332
vt 0.320634 0.685378
vt 0.320634 0.670581
vt 0.305837 0.670581
vt 0.305837 0.685378
vt 0.728698 0.196380
vt 0.743497 0.196380
vt 0.743497 0.075053
vt 0.728698 0.075053
vt 0.743497 0.205318
vt 0.728698 0.205318
vt 0.728698 0.326646
vt 0.743497 0.326646
vt 0.743497 0.334663
vt 0.728698 0.334663
vt 0.728698 0.455990
vt 0.743497 0.455990
vt 0.743497 0.464928
vt 0.728698 0.464928
vt 0.728698 0.586256
vt 0.743497 0.586256
vt 0.774103 0.390777
vt 0.774103 0.440091
vt 0.785583 0.440091
vt 0.785583 0.390777
vt 0.774103 0.448896
vt 0.774103 0.498210
vt 0.785583 0.498210
vt 0.785583 0.448896
vt 0.776107 0.771554
vt 0.776107 0.820868
vt 0.787587 0.820868
vt 0.787587 0.771554
vt 0.805624 0.383977
vt 0.805624 0.334663
vt 0.794144 0.334663
vt 0.794144 0.383977
vt 0.651309 0.772342
vt 0.601995 0.772342
vt 0.601995 0.821656
vt 0.651309 0.821656
vt 0.774336 0.100176
vt 0.791595 0.117433
vt 0.791595 0.068119
vt 0.774336 0.085378
vt 0.774336 0.163527
vt 0.791595 0.146268
vt 0.791595 0.131472
vt 0.774336 0.114213
vt 0.791595 0.160307
vt 0.774336 0.177566
vt 0.774336 0.192365
vt 0.791595 0.209621
vt 0.774336 0.250480
vt 0.791595 0.267740
vt 0.791595 0.218425
vt 0.774336 0.235684
vt 0.189598 0.685378
vt 0.204397 0.685378
vt 0.204397 0.670580
vt 0.189598 0.670580
vt 0.809632 0.742263
vt 0.809632 0.727464
vt 0.688304 0.727464
vt 0.688304 0.742263
vt 0.548179 0.763538
vt 0.548179 0.748739
vt 0.426851 0.748739
vt 0.426851 0.763538
vt 0.679366 0.763538
vt 0.679366 0.748739
vt 0.558038 0.748739
vt 0.558038 0.763538
vt 0.809632 0.763538
vt 0.809632 0.748739
vt 0.688304 0.748739
vt 0.688304 0.763538
vt 0.088160 0.786128
vt 0.038845 0.786128
vt 0.038845 0.797607
vt 0.088160 0.797607
vt 0.146278 0.786128
vt 0.096964 0.786128
vt 0.096964 0.797607
vt 0.146278 0.797607
vt 0.204397 0.786128
vt 0.155083 0.786128
vt 0.155083 0.797607
vt 0.204397 0.797607
vt 0.799611 0.638496
vt 0.799611 0.589182
vt 0.788132 0.589182
vt 0.788132 0.638496
vt 0.730256 0.595194
vt 0.730256 0.644508
vt 0.779571 0.644508
vt 0.779571 0.595194
vt 0.774336 0.042058
vt 0.791595 0.059314
vt 0.791595 0.010000
vt 0.774336 0.027259
vt 0.752301 0.531063
vt 0.769561 0.548322
vt 0.784356 0.548322
vt 0.801616 0.531063
vt 0.784356 0.563121
vt 0.801616 0.580378
vt 0.769561 0.563121
vt 0.752301 0.580378
vt 0.167553 0.707423
vt 0.182352 0.707423
vt 0.182352 0.692625
vt 0.167553 0.692625
vt 0.765542 0.010000
vt 0.750743 0.010000
vt 0.750743 0.131328
vt 0.765542 0.131328
vt 0.765542 0.141188
vt 0.750743 0.141188
vt 0.750743 0.262515
vt 0.765542 0.262515
vt 0.765542 0.271453
vt 0.750743 0.271453
vt 0.750743 0.392781
vt 0.765542 0.392781
vt 0.765542 0.400798
vt 0.750743 0.400798
vt 0.750743 0.522125
vt 0.765542 0.522125
# 272 texture coordinates

vn -0.000000 -0.000000 1.000000
vn -0.000000 -0.000000 1.000000
vn -0.000000 -0.000000 1.000000
vn -0.000000 -0.000000 1.000000
vn -0.000000 1.000000 -0.000000
vn -0.000000 1.000000 -0.000000
vn -0.000000 1.000000 -0.000000
vn -0.000000 1.000000 -0.000000
vn -0.000000 -0.000000 -1.000000
vn -0.000000 -0.000000 -1.000000
vn -0.000000 -0.000000 -1.000000
vn -0.000000 -0.000000 -1.000000
vn -0.000000 -1.000000 -0.000000
vn -0.000000 -1.000000 -0.000000
vn -0.000000 -1.000000 -0.000000
vn -0.000000 -1.000000 -0.000000
vn 1.000000 -0.000000 -0.000000
vn 1.000000 -0.000000 -0.000000
vn 1.000000 -0.000000 -0.000000
vn 1.000000 -0.000000 -0.000000
vn -1.000000 -0.000000 -0.000000
vn -1.000000 -0.000000 -0.000000
vn -1.000000 -0.000000 -0.000000
vn -1.000000 -0.000000 -0.000000
vn -0.000000 -0.000000 1.000000
vn -0.000000 -0.000000 1.000000
vn -0.000000 -0.000000 1.000000
vn -0.000000 -0.000000 1.000000
vn 1.000000 -0.000000 -0.000000
vn 1.000000 -0.000000 -0.000000
vn -0.000000 -0.000000 -1.000000
vn -0.000000 -0.000000 -1.000000
vn -0.000000 -0.000000 -1.000000
vn -0.000000 -0.000000 -1.000000
vn -1.000000 -0.000000 -0.000000
vn -1.000000 -0.000000 -0.000000
vn -0.000000 1.000000 -0.000000
vn -0.000000 1.000000 -0.000000
vn 1.000000 -0.000000 -0.000000
vn 1.000000 -0.000000 -0.000000
vn -0.000000 -1.000000 -0.000000
vn -0.000000 -1.000000 -0.000000
vn -0.000000 -1.000000 -0.000000
vn -0.000000 -1.000000 -0.000000
vn -1.000000 -0.000000 -0.000000
vn -1.000000 -0.000000 -0.000000
vn -0.000000 -1.000000 -0.000000
vn -0.000000 -1.000000 -0.000000
vn -0.000000 -1.000000 -0.000000
vn -0.000000 -1.000000 -0.000000
vn 1.000000 -0.000000 -0.000000
vn 1.000000 -0.000000 -0.000000
vn -0.000000 1.000000 -0.000000
vn -0.000000 1.000000 -0.000000
vn -1.000000 -0.000000 -0.000000
vn -1.000000 -0.000000 -0.000000
vn -1.000000 -0.000000 -0.000000
vn -1.000000 -0.000000 -0.000000
vn -1.000000 -0.000000 -0.000000
vn -1.000000 -0.000000 -0.000000
vn -0.000000 -0.000000 1.000000
vn -0.000000 -0.000000 1.000000
vn -0.000000 -0.000000 1.000000
vn -0.000000 -0.000000 1.000000
vn 1.000000 -0.000000 -0.000000
vn 1.000000 -0.000000 -0.000000
vn 1.000000 -0.000000 -0.000000
vn 1.000000 -0.000000 -0.000000
vn 0.000001 -0.000000 -1.000000
vn 0.000001 -0.000000 -1.000000
vn 0.000001 -0.000000 -1.000000
vn 0.000001 -0.000000 -1.000000
vn -0.000000 1.000000 -0.000000
vn -0.000000 1.000000 -0.000000
vn -0.000000 1.000000 -0.000000
vn -0.000000 1.000000 -0.000000
vn -0.000000 -1.000000 -0.000000
vn -0.000000 -1.000000 -0.000000
vn -0.000000 -1.000000 -0.000000
vn -0.000000 -1.000000 -0.000000
vn -0.000000 -1.000000 -0.000000
vn -0.000000 -1.000000 -0.000000
vn -0.000000 -1.000000 -0.000000
vn -0.000000 -1.000000 -0.000000
vn -0.000000 -1.000000 -0.000000
vn -0.000000 -1.000000 -0.000000
vn -0.000000 -1.000000 -0.000000
vn -0.000000 -1.000000 -0.000000
vn -0.000000 -0.000000 -1.000000
vn -0.000000 -0.000000 -1.000000
vn -0.000000 -0.000000 -1.000000
vn -0.000000 -0.000000 -1.000000
vn 1.000000 -0.000000 -0.000000
vn 1.000000 -0.000000 -0.000000
vn 1.000000 -0.000000 -0.000000
vn 1.000000 -0.000000 -0.000000
vn -0.000000 -0.000000 1.000000
vn -0.000000 -0.000000 1.000000
vn -0.000000 -0.000000 1.000000
vn -0.000000 -0.000000 1.000000
vn -1.000000 -0.000000 -0.000000
vn -1.000000 -0.000000 -0.000000
vn -1.000000 -0.000000 -0.000000
vn -1.000000 -0.000000 -0.000000
vn -1.000000 -0.000000 -0.000000
vn -1.000000 -0.000000 -0.000000
vn -1.000000 -0.000000 -0.000000
vn -1.000000 -0.000000 -0.000000
vn -0.000000 -0.000000 1.000000
vn -0.000000 -0.000000 1.000000
vn -0.000000 -0.000000 1.000000
vn -0.000000 -0.000000 1.000000
vn 1.000000 -0.000000 -0.000000
vn 1.000000 -0.000000 -0.000000
vn 1.000000 -0.000000 -0.000000
vn 1.000000 -0.000000 -0.000000
vn 0.000001 -0.000000 -1.000000
vn 0.000001 -0.000000 -1.000000
vn 0.000001 -0.000000 -1.000000
vn 0.000001 -0.000000 -1.000000
vn -0.000000 1.000000 -0.000000
vn -0.000000 1.000000 -0.000000
vn -0.000000 1.000000 -0.000000
vn -0.000000 1.000000 -0.000000
vn -0.000000 -1.000000 -0.000000
vn -0.000000 -1.000000 -0.000000
vn -0.000000 -1.000000 -0.000000
vn -0.000000 -1.000000 -0.000000
vn -0.000000 -1.000000 -0.000000
vn -0.000000 -1.000000 -0.000000
vn -0.000000 -1.000000 -0.000000
vn -0.000000 -1.000000 -0.000000
vn -0.000000 -1.000000 -0.000000
vn -0.000000 -1.000000 -0.000000
vn -0.000000 -1.000000 -0.000000
vn -0.000000 -1.000000 -0.000000
vn -0.000000 -0.000000 -1.000000
vn -0.000000 -0.000000 -1.000000
vn -0.000000 -0.000000 -1.000000
vn -0.000000 -0.000000 -1.000000
vn 1.000000 -0.000000 -0.000000
vn 1.000000 -0.000000 -0.000000
vn 1.000000 -0.000000 -0.000000
vn 1.000000 -0.000000 -0.000000
vn -0.000000 -0.000000 1.000000
vn -0.000000 -0.000000 1.000000
vn -0.000000 -0.000000 1.000000
vn -0.000000 -0.000000 1.000000
vn -1.000000 -0.000000 -0.000000
vn -1.000000 -0.000000 -0.000000
vn -1.000000 -0.000000 -0.000000
vn -1.000000 -0.000000 -0.000000
vn -1.000000 -0.000000 -0.000000
vn -1.000000 -0.000000 -0.000000
vn -1.000000 -0.000000 -0.000000
vn -1.000000 -0.000000 -0.000000
vn -0.000000 -0.000000 1.000000
vn -0.000000 -0.000000 1.000000
vn -0.000000 -0.000000 1.000000
vn -0.000000 -0.000000 1.000000
vn 1.000000 -0.000000 -0.000000
vn 1.000000 -0.000000 -0.000000
vn 1.000000 -0.000000 -0.000000
vn 1.000000 -0.000000 -0.000000
vn 0.000001 -0.000000 -1.000000
vn 0.000001 -0.000000 -1.000000
vn 0.000001 -0.000000 -1.000000
vn 0.000001 -0.000000 -1.000000
vn -0.000000 1.000000 -0.000000
vn -0.000000 1.000000 -0.000000
vn -0.000000 1.000000 -0.000000
vn -0.000000 1.000000 -0.000000
vn -0.000000 -1.000000 -0.000000
vn -0.000000 -1.000000 -0.000000
vn -0.000000 -1.000000 -0.000000
vn -0.000000 -1.000000 -0.000000
vn -0.000000 -1.000000 -0.000000
vn -0.000000 -1.000000 -0.000000
vn -0.000000 -1.000000 -0.000000
vn -0.000000 -1.000000 -0.000000
vn -0.000000 -1.000000 -0.000000
vn -0.000000 -1.000000 -0.000000
vn -0.000000 -1.000000 -0.000000
vn -0.000000 -1.000000 -0.000000
vn -0.000000 -0.000000 -1.000000
vn -0.000000 -0.000000 -1.000000
vn -0.000000 -0.000000 -1.000000
vn -0.000000 -0.000000 -1.000000
vn 1.000000 -0.000000 -0.000000
vn 1.000000 -0.000000 -0.000000
vn 1.000000 -0.000000 -0.000000
vn 1.000000 -0.000000 -0.000000
vn -0.000000 -0.000000 1.000000
vn -0.000000 -0.000000 1.000000
vn -0.000000 -0.000000 1.000000
vn -0.000000 -0.000000 1.000000
vn -1.000000 -0.000000 -0.000000
vn -1.000000 -0.000000 -0.000000
vn -1.000000 -0.000000 -0.000000
vn -1.000000 -0.000000 -0.000000
vn -1.000000 -0.000000 -0.000000
vn -1.000000 -0.000000 -0.000000
vn -1.000000 -0.000000 -0.000000
vn -1.000000 -0.000000 -0.000000
vn -0.000000 -0.000000 1.000000
vn -0.000000 -0.000000 1.000000
vn -0.000000 -0.000000 1.000000
vn -0.000000 -0.000000 1.000000
vn 1.000000 -0.000000 -0.000000
vn 1.000000 -0.000000 -0.000000
vn 1.000000 -0.000000 -0.000000
vn 1.000000 -0.000000 -0.000000
vn 0.000001 -0.000000 -1.000000
vn 0.000001 -0.000000 -1.000000
vn 0.000001 -0.000000 -1.000000
vn 0.000001 -0.000000 -1.000000
vn -0.000000 1.000000 -0.000000
vn -0.000000 1.000000 -0.000000
vn -0.000000 1.000000 -0.000000
vn -0.000000 1.000000 -0.000000
vn -0.000000 -1.000000 -0.000000
vn -0.000000 -1.000000 -0.000000
vn -0.000000 -1.000000 -0.000000
vn -0.000000 -1.000000 -0.000000
vn -0.000000 -1.000000 -0.000000
vn -0.000000 -1.000000 -0.000000
vn -0.000000 -1.000000 -0.000000
vn -0.000000 -1.000000 -0.000000
vn -0.000000 -1.000000 -0.000000
vn -0.000000 -1.000000 -0.000000
vn -0.000000 -1.000000 -0.000000
vn -0.000000 -1.000000 -0.000000
vn -0.000000 -0.000000 -1.000000
vn -0.000000 -0.000000 -1.000000
vn -0.000000 -0.000000 -1.000000
vn -0.000000 -0.000000 -1.000000
vn 1.000000 -0.000000 -0.000000
vn 1.000000 -0.000000 -0.000000
vn 1.000000 -0.000000 -0.000000
vn 1.000000 -0.000000 -0.000000
vn -0.000000 -0.000000 1.000000
vn -0.000000 -0.000000 1.000000
vn -0.000000 -0.000000 1.000000
vn -0.000000 -0.000000 1.000000
vn -1.000000 -0.000000 -0.000000
vn -1.000000 -0.000000 -0.000000
vn -1.000000 -0.000000 -0.000000
vn -1.000000 -0.000000 -0.000000
# 248 normals

g Sushi_Counter

# 0 positions

# 0 texture coordinates

# 0 normals

usemtl initialShadingGroup
s 1
f 17/1/1 18/2/2 19/3/3 20/4/4
s 2
f 3/5/5 4/6/6 6/7/7 5/8/8
f 5/8/8 6/7/7 14/37/37 13/38/38
f 4/6/6 3/5/5 20/53/53 19/54/54
s 3
f 13/9/9 14/10/10 15/11/11 16/12/12
s 4
f 7/13/13 8/14/14 2/15/15 1/16/16
s 5
f 10/17/17 11/18/18 6/19/19 4/20/20
f 2/29/29 8/30/30 11/18/18 10/17/17
f 6/19/19 11/18/18 15/39/39 14/40/40
f 10/17/17 4/20/20 19/51/51 18/52/52
s 6
f 12/21/21 9/22/22 3/23/23 5/24/24
f 7/35/35 1/36/36 9/22/22 12/21/21
f 12/21/21 5/24/24 13/45/45 16/46/46
f 3/23/23 9/22/22 17/55/55 20/56/56
s 7
f 1/25/25 2/26/26 10/27/27 9/28/28
s 8
f 12/31/31 11/32/32 8/33/33 7/34/34
s 9
f 11/41/41 12/42/42 16/43/43 15/44/44
s 10
f 9/47/47 10/48/48 18/49/49 17/50/50
s 11
f 21/57/57 22/58/58 26/59/59 25/60/60
s 12
f 22/61/61 23/62/62 27/63/63 26/64/64
s 13
f 23/65/65 24/66/66 28/67/67 27/68/68
s 14
f 24/69/69 21/70/70 25/71/71 28/72/72
s 15
f 25/73/73 26/74/74 27/75/75 28/76/76
s 16
f 29/77/77 24/78/78 23/79/79 31/80/80
f 24/81/78 29/82/77 30/83/81 21/84/82
f 21/84/82 30/83/81 32/85/83 22/86/84
f 31/87/80 23/88/79 22/86/84 32/85/83
s 17
f 34/89/85 33/90/86 35/91/87 36/92/88
s 18
f 30/93/89 29/94/90 33/95/91 34/96/92
s 19
f 29/97/93 31/98/94 35/99/95 33/100/96
s 20
f 31/101/97 32/102/98 36/103/99 35/104/100
s 21
f 32/105/101 30/106/102 34/107/103 36/108/104
s 22
f 37/109/105 38/110/106 42/111/107 41/112/108
s 23
f 38/113/109 39/114/110 43/115/111 42/116/112
s 24
f 39/117/113 40/118/114 44/119/115 43/120/116
s 25
f 40/121/117 37/122/118 41/123/119 44/124/120
s 26
f 41/125/121 42/126/122 43/127/123 44/128/124
s 27
f 45/129/125 40/130/126 39/131/127 47/132/128
f 40/133/126 45/134/125 46/135/129 37/136/130
f 37/137/130 46/138/129 48/139/131 38/140/132
f 47/141/128 39/142/127 38/143/132 48/144/131
s 28
f 50/145/133 49/146/134 51/147/135 52/148/136
s 29
f 46/149/137 45/150/138 49/151/139 50/152/140
s 30
f 45/153/141 47/154/142 51/155/143 49/156/144
s 31
f 47/157/145 48/158/146 52/159/147 51/160/148
s 32
f 48/161/149 46/162/150 50/163/151 52/164/152
s 33
f 53/165/153 54/166/154 58/167/155 57/168/156
s 34
f 54/169/157 55/170/158 59/171/159 58/172/160
s 35
f 55/173/161 56/174/162 60/175/163 59/176/164
s 36
f 56/177/165 53/178/166 57/179/167 60/180/168
s 37
f 57/181/169 58/182/170 59/183/171 60/184/172
s 38
f 61/185/173 56/186/174 55/187/175 63/188/176
f 56/189/174 61/190/173 62/191/177 53/192/178
f 53/193/178 62/194/177 64/195/179 54/196/180
f 63/197/176 55/198/175 54/199/180 64/200/179
s 39
f 66/201/181 65/202/182 67/203/183 68/204/184
s 40
f 62/205/185 61/206/186 65/207/187 66/208/188
s 41
f 61/209/189 63/210/190 67/211/191 65/212/192
s 42
f 63/213/193 64/214/194 68/215/195 67/216/196
s 43
f 64/217/197 62/218/198 66/219/199 68/220/200
s 44
f 69/221/201 70/222/202 74/223/203 73/224/204
s 45
f 70/225/205 71/226/206 75/227/207 74/228/208
s 46
f 71/229/209 72/230/210 76/231/211 75/232/212
s 47
f 72/233/213 69/234/214 73/235/215 76/236/216
s 48
f 73/237/217 74/238/218 75/239/219 76/240/220
s 49
f 77/241/221 72/242/222 71/243/223 79/244/224
f 72/245/222 77/246/221 78/247/225 69/248/226
f 69/248/226 78/247/225 80/249/227 70/250/228
f 79/251/224 71/252/223 70/250/228 80/249/227
s 50
f 82/253/229 81/254/230 83/255/231 84/256/232
s 51
f 78/257/233 77/258/234 81/259/235 82/260/236
s 52
f 77/261/237 79/262/238 83/263/239 81/264/240
s 53
f 79/265/241 80/266/242 84/267/243 83/268/244
s 54
f 80/269/245 78/270/246 82/271/247 84/272/248

# 74 faces
