# Wavefront Obj file
# 
# verts: 100 uv-s: 208
mtllib Can UV.mtl

g default

v -35.311901 0.874006 143.626648
v -35.811901 0.874007 143.263519
v -36.429943 0.874007 143.263519
v -36.929943 0.874006 143.626648
v -37.120918 0.874007 144.214478
v -36.929943 0.874011 144.802338
v -36.429943 0.874005 145.165497
v -35.811901 0.874005 145.165497
v -35.311901 0.874011 144.802338
v -35.120918 0.874007 144.214478
v -35.423443 3.484035 143.707718
v -35.311901 3.365510 143.626694
v -35.854504 3.484033 143.394623
v -35.811901 3.365510 143.263428
v -36.387341 3.484033 143.394623
v -36.429943 3.365510 143.263428
v -36.818401 3.484035 143.707718
v -36.929943 3.365510 143.626694
v -36.983074 3.484035 144.214478
v -37.120918 3.365510 144.214569
v -36.818401 3.484035 144.721207
v -36.929943 3.365507 144.802231
v -36.387341 3.484037 145.034500
v -36.429943 3.365507 145.165543
v -35.854504 3.484037 145.034500
v -35.811901 3.365507 145.165543
v -35.423443 3.484035 144.721207
v -35.311901 3.365507 144.802231
v -35.258801 3.484035 144.214478
v -35.120918 3.365510 144.214569
v -35.868027 3.638324 143.436111
v -35.854504 3.599752 143.394547
v -35.423443 3.599755 143.707809
v -35.458813 3.638322 143.733368
v -36.373848 3.638324 143.436111
v -36.387341 3.599752 143.394547
v -36.783062 3.638322 143.733368
v -36.818401 3.599755 143.707809
v -36.939373 3.638324 144.214478
v -36.983074 3.599755 144.214569
v -36.783062 3.638324 144.695618
v -36.818401 3.599755 144.721313
v -36.373848 3.638319 144.992737
v -36.387341 3.599757 145.034531
v -35.868027 3.638319 144.992737
v -35.854504 3.599757 145.034531
v -35.458813 3.638324 144.695618
v -35.423443 3.599755 144.721313
v -35.302502 3.638324 144.214478
v -35.258801 3.599755 144.214569
v -35.893288 3.638324 143.513931
v -35.525002 3.638319 143.781494
v -36.348557 3.638324 143.513931
v -36.716869 3.638319 143.781494
v -36.857525 3.638324 144.214478
v -36.716869 3.638323 144.647522
v -36.348557 3.638325 144.915039
v -35.893288 3.638325 144.915039
v -35.525002 3.638323 144.647522
v -35.384319 3.638324 144.214478
v -35.893288 3.566022 143.514053
v -35.525002 3.566019 143.781479
v -36.348557 3.566022 143.514053
v -36.716869 3.566019 143.781479
v -36.857525 3.566018 144.214478
v -36.716869 3.566022 144.647446
v -36.348557 3.566022 144.915131
v -35.893288 3.566022 144.915131
v -35.525002 3.566022 144.647446
v -35.384319 3.566018 144.214478
v -35.220898 0.725786 144.221146
v -35.392803 0.725783 143.692047
v -35.392803 0.725783 144.750076
v -35.842812 0.725785 145.077026
v -36.399055 0.725785 145.077026
v -36.849072 0.725783 144.750076
v -37.020943 0.725786 144.221146
v -36.849072 0.725783 143.692047
v -36.399055 0.725783 143.365097
v -35.842812 0.725783 143.365097
v -35.400860 0.725784 144.221146
v -35.538399 0.725785 143.797836
v -35.538399 0.725785 144.644302
v -35.898415 0.725785 144.905884
v -36.343456 0.725785 144.905884
v -36.703503 0.725787 144.644318
v -36.840984 0.725784 144.221146
v -36.703472 0.725785 143.797821
v -36.343456 0.725783 143.536270
v -35.898415 0.725783 143.536270
v -35.400860 0.794623 144.221130
v -35.538399 0.794624 143.797821
v -35.538399 0.794623 144.644287
v -35.898415 0.794623 144.905869
v -36.343456 0.794623 144.905869
v -36.703503 0.794625 144.644302
v -36.840984 0.794623 144.221130
v -36.703472 0.794623 143.797806
v -36.343456 0.794622 143.536270
v -35.898415 0.794622 143.536270
# 100 positions

vt 0.478989 0.022353
vt 0.451986 0.010000
vt 0.441928 0.104540
vt 0.470165 0.107569
vt 0.452710 0.734769
vt 0.463118 0.762421
vt 0.549487 0.755899
vt 0.549653 0.726916
vt 0.441445 0.198996
vt 0.470732 0.196015
vt 0.453268 0.295340
vt 0.481216 0.283205
vt 0.811340 0.590058
vt 0.822203 0.616611
vt 0.901312 0.559556
vt 0.879539 0.540878
vt 0.945729 0.472754
vt 0.917838 0.466031
vt 0.945729 0.375226
vt 0.917845 0.381943
vt 0.901303 0.288407
vt 0.879544 0.307093
vt 0.822203 0.231355
vt 0.811340 0.257909
vt 0.634487 0.761242
vt 0.644996 0.734582
vt 0.038796 0.010000
vt 0.051688 0.106179
vt 0.050879 0.202917
vt 0.037710 0.298678
vt 0.410592 0.814632
vt 0.399894 0.718173
vt 0.010000 0.715610
vt 0.010615 0.814632
vt 0.409669 0.622278
vt 0.015090 0.617721
vt 0.418473 0.603848
vt 0.401386 0.509302
vt 0.010000 0.507500
vt 0.017319 0.609671
vt 0.401218 0.415416
vt 0.014484 0.403359
vt 0.418473 0.322478
vt 0.026288 0.305173
vt 0.646687 0.332178
vt 0.549778 0.339420
vt 0.452710 0.329981
vt 0.669607 0.850032
vt 0.661933 0.854923
vt 0.732672 0.905483
vt 0.735295 0.896678
vt 0.650294 0.771926
vt 0.641067 0.770770
vt 0.679143 0.697140
vt 0.671953 0.691155
vt 0.819223 0.904960
vt 0.816074 0.896250
vt 0.889222 0.854923
vt 0.881616 0.849531
vt 0.917556 0.774375
vt 0.908228 0.774130
vt 0.893770 0.692974
vt 0.885917 0.697999
vt 0.826007 0.642549
vt 0.822471 0.651115
vt 0.741376 0.641824
vt 0.743669 0.650800
vt 0.488336 0.109439
vt 0.497496 0.024888
vt 0.489094 0.195233
vt 0.499578 0.280608
vt 0.591561 0.234519
vt 0.591561 0.150438
vt 0.573300 0.150424
vt 0.573300 0.234506
vt 0.591561 0.066361
vt 0.573300 0.066345
vt 0.138072 0.841088
vt 0.222160 0.841075
vt 0.222160 0.822815
vt 0.138079 0.822828
vt 0.306240 0.841075
vt 0.306240 0.822815
vt 0.390329 0.841088
vt 0.390321 0.822828
vt 0.549286 0.774333
vt 0.633822 0.779520
vt 0.464346 0.780719
vt 0.680313 0.843028
vt 0.739260 0.884369
vt 0.663092 0.772882
vt 0.688836 0.705622
vt 0.811780 0.883902
vt 0.870942 0.841851
vt 0.895076 0.773739
vt 0.874863 0.704998
vt 0.817493 0.663111
vt 0.746476 0.663392
vt 0.696410 0.285752
vt 0.654211 0.343867
vt 0.654211 0.415707
vt 0.696410 0.473826
vt 0.764736 0.496021
vt 0.833058 0.473826
vt 0.875298 0.415707
vt 0.875298 0.343867
vt 0.833058 0.285752
vt 0.764736 0.263552
vt 0.654607 0.446674
vt 0.654535 0.518506
vt 0.665944 0.518506
vt 0.666016 0.446687
vt 0.654535 0.590347
vt 0.665944 0.590347
vt 0.654607 0.662182
vt 0.666016 0.662169
vt 0.618386 0.052261
vt 0.618385 0.124099
vt 0.629795 0.124099
vt 0.629794 0.052259
vt 0.618386 0.195947
vt 0.629794 0.195936
vt 0.428365 0.829014
vt 0.500197 0.828961
vt 0.500197 0.817551
vt 0.428349 0.817605
vt 0.572037 0.828961
vt 0.572037 0.817551
vt 0.643866 0.829014
vt 0.643881 0.817605
vt 0.668029 0.203999
vt 0.668029 0.132150
vt 0.656619 0.132150
vt 0.656620 0.203988
vt 0.668028 0.060310
vt 0.656619 0.060308
vt 0.551538 0.311260
vt 0.639981 0.304740
vt 0.461694 0.301958
vt 0.011046 0.019108
vt 0.022709 0.107890
vt 0.445547 0.330978
vt 0.428813 0.418418
vt 0.429043 0.507600
vt 0.445101 0.594432
vt 0.436925 0.629339
vt 0.428029 0.717247
vt 0.438329 0.805977
vt 0.010000 0.288784
vt 0.022312 0.200591
vt 0.631576 0.265645
vt 0.631576 0.294043
vt 0.715040 0.266917
vt 0.698350 0.243942
vt 0.564779 0.243942
vt 0.548086 0.266916
vt 0.523504 0.187133
vt 0.496493 0.195907
vt 0.766632 0.195907
vt 0.739627 0.187133
vt 0.766632 0.108133
vt 0.739627 0.116906
vt 0.715040 0.037121
vt 0.698352 0.060091
vt 0.631576 0.010000
vt 0.631576 0.038397
vt 0.548085 0.037121
vt 0.564776 0.060096
vt 0.496493 0.108133
vt 0.523504 0.116906
vt 0.815152 0.215545
vt 0.881950 0.237248
vt 0.948723 0.215545
vt 0.990000 0.158736
vt 0.990000 0.088509
vt 0.948726 0.031694
vt 0.881950 0.010000
vt 0.815150 0.031699
vt 0.773880 0.088509
vt 0.773880 0.158736
vt 0.598809 0.058298
vt 0.598808 0.128532
vt 0.609671 0.128530
vt 0.609671 0.058296
vt 0.598809 0.198744
vt 0.609671 0.198742
vt 0.885359 0.622956
vt 0.815138 0.622948
vt 0.815138 0.633811
vt 0.885359 0.633819
vt 0.744911 0.622948
vt 0.744911 0.633811
vt 0.674686 0.622956
vt 0.674686 0.633819
vt 0.647906 0.192707
vt 0.647906 0.122496
vt 0.637043 0.122495
vt 0.637043 0.192706
vt 0.647906 0.052262
vt 0.637043 0.052259
vt 0.399004 0.847125
vt 0.469224 0.847125
vt 0.469224 0.836262
vt 0.399006 0.836262
vt 0.539451 0.847125
vt 0.539451 0.836262
vt 0.609671 0.847125
vt 0.609670 0.836262
# 208 texture coordinates

vn 0.527399 0.758289 -0.383208
vn 0.527430 0.758289 -0.383166
vn 0.201385 0.758470 -0.619812
vn 0.201332 0.758470 -0.619830
vn 0.651869 0.758331 -0.000000
vn 0.651869 0.758331 0.000002
vn -0.201385 0.758470 -0.619812
vn -0.201332 0.758470 -0.619830
vn -0.527432 0.758289 -0.383163
vn -0.527390 0.758289 -0.383221
vn -0.651973 0.758242 0.000002
vn -0.651973 0.758242 -0.000000
vn -0.527407 0.758280 0.383215
vn -0.527437 0.758280 0.383173
vn -0.201537 0.758111 0.620203
vn -0.201580 0.758111 0.620189
vn 0.201537 0.758111 0.620203
vn 0.201580 0.758111 0.620189
vn 0.527405 0.758280 0.383218
vn 0.527446 0.758280 0.383160
vn 0.587634 0.000015 -0.809127
vn 0.587634 -0.000030 -0.809127
vn 0.587780 -0.000030 -0.809021
vn 0.587780 0.000015 -0.809021
vn -0.000000 -0.000037 -1.000000
vn -0.000000 -0.000037 -1.000000
vn -0.000000 -0.000037 -1.000000
vn -0.000000 -0.000037 -1.000000
vn -0.587634 -0.000030 -0.809127
vn -0.587634 0.000015 -0.809127
vn -0.587780 0.000015 -0.809021
vn -0.587780 -0.000030 -0.809021
vn -0.951067 0.000006 -0.308984
vn -0.951067 0.000011 -0.308984
vn -0.951074 0.000011 -0.308963
vn -0.951074 0.000006 -0.308963
vn -0.951072 -0.000011 0.308970
vn -0.951072 0.000013 0.308970
vn -0.951041 0.000013 0.309064
vn -0.951041 -0.000011 0.309064
vn -0.587667 0.000035 0.809103
vn -0.587667 -0.000015 0.809103
vn -0.587828 -0.000015 0.808986
vn -0.587828 0.000035 0.808986
vn -0.000000 -0.000018 1.000000
vn -0.000000 -0.000018 1.000000
vn -0.000000 -0.000018 1.000000
vn -0.000000 -0.000018 1.000000
vn 0.587667 -0.000015 0.809103
vn 0.587667 0.000035 0.809103
vn 0.587828 0.000035 0.808986
vn 0.587828 -0.000015 0.808986
vn 0.951068 0.000013 0.308981
vn 0.951068 -0.000011 0.308981
vn 0.951038 -0.000011 0.309075
vn 0.951038 0.000013 0.309075
vn 0.951064 0.000011 -0.308996
vn 0.951063 0.000006 -0.308996
vn 0.951070 0.000006 -0.308974
vn 0.951070 0.000011 -0.308974
vn 0.204432 0.749798 -0.629293
vn 0.204507 0.749798 -0.629269
vn -0.204532 0.749727 -0.629345
vn -0.204457 0.749727 -0.629369
vn 0.535752 0.749301 -0.389253
vn 0.535778 0.749301 -0.389217
vn 0.661707 0.749762 -0.000001
vn 0.661707 0.749762 -0.000000
vn -0.535938 0.749115 -0.389354
vn -0.535922 0.749115 -0.389376
vn -0.661707 0.749762 -0.000000
vn -0.661707 0.749762 -0.000001
vn -0.535385 0.749707 0.388976
vn -0.535353 0.749707 0.389021
vn -0.203909 0.751437 0.627506
vn -0.203767 0.751437 0.627552
vn 0.203884 0.751507 0.627430
vn 0.203743 0.751507 0.627476
vn 0.535225 0.749892 0.388840
vn 0.535183 0.749892 0.388897
vn 0.587676 0.000640 -0.809096
vn 0.587676 -0.000533 -0.809096
vn 0.587882 -0.000533 -0.808946
vn 0.587882 0.000640 -0.808946
vn -0.000000 -0.000659 -1.000000
vn -0.000000 -0.000659 -1.000000
vn -0.000000 -0.000659 -1.000000
vn -0.000000 -0.000659 -1.000000
vn -0.587676 -0.000533 -0.809096
vn -0.587676 0.000640 -0.809096
vn -0.587882 0.000640 -0.808946
vn -0.587882 -0.000533 -0.808946
vn -0.951047 0.000245 -0.309045
vn -0.951047 0.000245 -0.309045
vn -0.951047 0.000245 -0.309045
vn -0.951047 0.000245 -0.309045
vn -0.951042 -0.000245 0.309062
vn -0.951042 -0.000285 0.309062
vn -0.951045 -0.000285 0.309054
vn -0.951045 -0.000245 0.309054
vn -0.587919 -0.000747 0.808919
vn -0.587920 -0.000213 0.808919
vn -0.587826 -0.000213 0.808987
vn -0.587826 -0.000747 0.808987
vn -0.000000 -0.000264 1.000000
vn -0.000000 -0.000264 1.000000
vn -0.000000 -0.000264 1.000000
vn -0.000000 -0.000264 1.000000
vn 0.587920 -0.000213 0.808919
vn 0.587919 -0.000747 0.808919
vn 0.587826 -0.000747 0.808987
vn 0.587826 -0.000213 0.808987
vn 0.951059 -0.000285 0.309010
vn 0.951059 -0.000244 0.309010
vn 0.951061 -0.000244 0.309002
vn 0.951061 -0.000285 0.309002
vn 0.951064 0.000244 -0.308993
vn 0.951064 0.000244 -0.308993
vn 0.951064 0.000244 -0.308993
vn 0.951064 0.000244 -0.308993
vn 0.000005 1.000000 0.000002
vn 0.000002 1.000000 0.000001
vn -0.000002 1.000000 0.000001
vn -0.000005 1.000000 0.000002
vn -0.000026 1.000000 0.000019
vn -0.000026 1.000000 0.000019
vn -0.000000 1.000000 -0.000004
vn -0.000000 1.000000 -0.000002
vn 0.000026 1.000000 0.000019
vn 0.000026 1.000000 0.000019
vn -0.000000 1.000000 -0.000002
vn -0.000000 1.000000 -0.000004
vn 0.000010 1.000000 -0.000001
vn 0.000006 1.000000 -0.000006
vn -0.000017 1.000000 0.000068
vn -0.000024 1.000000 0.000066
vn 0.000017 1.000000 0.000068
vn 0.000024 1.000000 0.000066
vn -0.000010 1.000000 -0.000001
vn -0.000006 1.000000 -0.000006
vn 0.000008 1.000000 0.000000
vn -0.000000 1.000000 0.000011
vn -0.000000 1.000000 0.000011
vn -0.000008 1.000000 0.000000
vn -0.000019 1.000000 -0.000003
vn 0.000009 1.000000 -0.000012
vn -0.000000 1.000000 -0.000000
vn -0.000000 1.000000 -0.000000
vn -0.000009 1.000000 -0.000012
vn 0.000019 1.000000 -0.000003
vn -0.587767 -0.000171 0.809030
vn -0.587767 0.001366 0.809030
vn -0.587569 0.001366 0.809173
vn -0.587569 -0.000171 0.809174
vn -0.000000 0.001688 0.999999
vn -0.000000 0.001688 0.999999
vn -0.000000 0.001688 0.999999
vn -0.000000 0.001688 0.999999
vn 0.587739 0.001366 0.809050
vn 0.587739 -0.000171 0.809050
vn 0.587542 -0.000171 0.809194
vn 0.587541 0.001366 0.809193
vn 0.951075 -0.000065 0.308959
vn 0.951075 -0.000000 0.308959
vn 0.951079 -0.000000 0.308949
vn 0.951079 -0.000065 0.308949
vn 0.951088 -0.000000 -0.308919
vn 0.951088 0.000326 -0.308919
vn 0.951072 0.000326 -0.308969
vn 0.951072 -0.000000 -0.308969
vn 0.587673 0.000854 -0.809098
vn 0.587673 -0.001025 -0.809098
vn 0.587914 -0.001024 -0.808923
vn 0.587914 0.000854 -0.808923
vn -0.000000 -0.001266 -0.999999
vn -0.000000 -0.001266 -0.999999
vn -0.000000 -0.001266 -0.999999
vn -0.000000 -0.001266 -0.999999
vn -0.587701 -0.001024 -0.809078
vn -0.587701 0.000854 -0.809078
vn -0.587942 0.000854 -0.808902
vn -0.587942 -0.001024 -0.808902
vn -0.951071 0.000326 -0.308972
vn -0.951071 -0.000000 -0.308972
vn -0.951055 -0.000000 -0.309022
vn -0.951055 0.000326 -0.309022
vn -0.951058 -0.000000 0.309012
vn -0.951058 -0.000065 0.309012
vn -0.951061 -0.000065 0.309002
vn -0.951061 -0.000000 0.309002
vn 0.829030 -0.559205 -0.000000
vn 0.829030 -0.559205 0.000002
vn 0.678680 -0.544277 0.493108
vn 0.678659 -0.544276 0.493138
vn 0.662504 -0.573965 -0.481303
vn 0.662463 -0.573966 -0.481357
vn 0.251229 -0.582268 -0.773206
vn 0.251138 -0.582269 -0.773235
vn 0.261135 -0.534317 0.803936
vn 0.261205 -0.534318 0.803913
vn -0.261141 -0.534288 0.803954
vn -0.261209 -0.534289 0.803931
vn -0.678734 -0.544179 0.493142
vn -0.678721 -0.544178 0.493161
vn -0.829040 -0.559190 0.000002
vn -0.829040 -0.559190 -0.000000
vn -0.662518 -0.573875 -0.481392
vn -0.662566 -0.573873 -0.481327
vn -0.251144 -0.582244 -0.773252
vn -0.251233 -0.582243 -0.773224
vn 0.000011 -1.000000 -0.000000
vn 0.000011 -1.000000 -0.000000
vn -0.000009 -1.000000 -0.000007
vn -0.000010 -1.000000 -0.000006
vn -0.000008 -1.000000 0.000008
vn -0.000007 -1.000000 0.000009
vn 0.000002 -1.000000 0.000001
vn -0.000000 -1.000000 -0.000000
vn -0.000002 -1.000000 0.000001
vn -0.000000 -1.000000 -0.000000
vn 0.000002 -1.000000 0.000001
vn -0.000002 -1.000000 -0.000001
vn 0.000017 -1.000000 -0.000014
vn 0.000018 -1.000000 -0.000012
vn -0.000011 -1.000000 -0.000000
vn -0.000011 -1.000000 0.000002
vn 0.000007 -1.000000 0.000009
vn 0.000008 -1.000000 0.000008
vn -0.000000 -1.000000 -0.000000
vn -0.000002 -1.000000 0.000001
vn 0.000010 -1.000000 -0.000006
vn -0.000004 -1.000000 -0.000001
vn -0.000000 -1.000000 -0.000000
vn -0.000000 -1.000000 -0.000000
vn -0.000000 -1.000000 -0.000008
vn -0.000012 -1.000000 0.000009
vn 0.000007 -1.000000 0.000002
vn -0.000004 -1.000000 -0.000001
vn -0.000000 -1.000000 0.000004
vn -0.000000 -1.000000 0.000008
vn -0.951058 0.000068 0.309012
vn -0.951058 0.000068 0.309012
vn -0.951058 0.000068 0.309012
vn -0.951058 0.000068 0.309012
vn -0.951026 -0.000069 -0.309112
vn -0.951025 -0.000069 -0.309112
vn -0.951025 -0.000069 -0.309112
vn -0.951026 -0.000069 -0.309112
vn -0.587807 -0.000179 -0.809001
vn -0.587807 -0.000179 -0.809001
vn -0.587807 -0.000179 -0.809001
vn -0.587807 -0.000179 -0.809001
vn -0.000000 -0.000222 -1.000000
vn -0.000000 -0.000222 -1.000000
vn -0.000000 -0.000222 -1.000000
vn -0.000000 -0.000222 -1.000000
vn 0.587752 -0.000179 -0.809041
vn 0.587752 -0.000179 -0.809041
vn 0.587752 -0.000179 -0.809041
vn 0.587752 -0.000179 -0.809041
vn 0.951067 -0.000068 -0.308986
vn 0.951067 -0.000068 -0.308986
vn 0.951067 -0.000068 -0.308986
vn 0.951067 -0.000068 -0.308986
vn 0.951079 0.000068 0.308947
vn 0.951079 0.000068 0.308947
vn 0.951079 0.000068 0.308947
vn 0.951079 0.000068 0.308947
vn 0.587762 0.000179 0.809034
vn 0.587762 -0.000000 0.809034
vn 0.587739 -0.000000 0.809050
vn 0.587739 0.000179 0.809050
vn -0.000000 -0.000000 1.000000
vn -0.000000 -0.000000 1.000000
vn -0.000000 -0.000000 1.000000
vn -0.000000 -0.000000 1.000000
vn -0.587784 -0.000000 0.809018
vn -0.587784 0.000179 0.809018
vn -0.587762 0.000179 0.809034
vn -0.587762 -0.000000 0.809034
# 280 normals

g Can

# 0 positions

# 0 texture coordinates

# 0 normals

usemtl initialShadingGroup
s 1
f 11/1/1 12/2/2 14/3/3 13/4/4
f 12/5/2 11/6/1 29/7/5 30/8/6
f 13/4/4 14/3/3 16/9/7 15/10/8
f 15/10/8 16/9/7 18/11/9 17/12/10
f 17/13/10 18/14/9 20/15/11 19/16/12
f 19/16/12 20/15/11 22/17/13 21/18/14
f 21/18/14 22/17/13 24/19/15 23/20/16
f 23/20/16 24/19/15 26/21/17 25/22/18
f 25/22/18 26/21/17 28/23/19 27/24/20
f 27/25/20 28/26/19 30/8/6 29/7/5
s 2
f 1/27/21 2/28/22 14/3/23 12/2/24
s 3
f 2/28/25 3/29/26 16/9/27 14/3/28
s 4
f 3/29/29 4/30/30 18/11/31 16/9/32
s 5
f 4/31/33 5/32/34 20/33/35 18/34/36
s 6
f 5/32/37 6/35/38 22/36/39 20/33/40
s 7
f 6/37/41 7/38/42 24/39/43 22/40/44
s 8
f 7/38/45 8/41/46 26/42/47 24/39/48
s 9
f 8/41/49 9/43/50 28/44/51 26/42/52
s 10
f 9/45/53 10/46/54 30/8/55 28/26/56
s 11
f 10/46/57 1/47/58 12/5/59 30/8/60
s 12
f 31/48/61 32/49/62 36/50/63 35/51/64
f 32/49/62 31/48/61 34/52/65 33/53/66
f 33/53/66 34/52/65 49/54/67 50/55/68
f 35/51/64 36/50/63 38/56/69 37/57/70
f 37/57/70 38/56/69 40/58/71 39/59/72
f 39/59/72 40/58/71 42/60/73 41/61/74
f 41/61/74 42/60/73 44/62/75 43/63/76
f 43/63/76 44/62/75 46/64/77 45/65/78
f 45/65/78 46/64/77 48/66/79 47/67/80
f 47/67/80 48/66/79 50/55/68 49/54/67
s 13
f 11/1/81 13/4/82 32/68/83 33/69/84
s 14
f 13/4/85 15/10/86 36/70/87 32/68/88
s 15
f 15/10/89 17/12/90 38/71/91 36/70/92
s 16
f 17/72/93 19/73/94 40/74/95 38/75/96
s 17
f 19/73/97 21/76/98 42/77/99 40/74/100
s 18
f 21/78/101 23/79/102 44/80/103 42/81/104
s 19
f 23/79/105 25/82/106 46/83/107 44/80/108
s 20
f 25/82/109 27/84/110 48/85/111 46/83/112
s 21
f 27/25/113 29/7/114 50/86/115 48/87/116
s 22
f 29/7/117 11/6/118 33/88/119 50/86/120
s 23
f 51/89/121 31/48/122 35/51/123 53/90/124
f 31/48/122 51/89/121 52/91/125 34/52/126
f 34/52/126 52/91/125 60/92/127 49/54/128
f 53/90/124 35/51/123 37/57/129 54/93/130
f 54/93/130 37/57/129 39/59/131 55/94/132
f 55/94/132 39/59/131 41/61/133 56/95/134
f 56/95/134 41/61/133 43/63/135 57/96/136
f 57/96/136 43/63/135 45/65/137 58/97/138
f 58/97/138 45/65/137 47/67/139 59/98/140
f 59/98/140 47/67/139 49/54/128 60/92/127
s 24
f 62/99/141 61/100/142 63/101/143 64/102/144 65/103/145 66/104/146 67/105/147 68/106/148 69/107/149 70/108/150
s 25
f 52/109/151 51/110/152 61/111/153 62/112/154
s 26
f 51/110/155 53/113/156 63/114/157 61/111/158
s 27
f 53/113/159 54/115/160 64/116/161 63/114/162
s 28
f 54/117/163 55/118/164 65/119/165 64/120/166
s 29
f 55/118/167 56/121/168 66/122/169 65/119/170
s 30
f 56/123/171 57/124/172 67/125/173 66/126/174
s 31
f 57/124/175 58/127/176 68/128/177 67/125/178
s 32
f 58/127/179 59/129/180 69/130/181 68/128/182
s 33
f 59/131/183 60/132/184 70/133/185 69/134/186
s 34
f 60/132/187 52/135/188 62/136/189 70/133/190
s 35
f 71/137/191 10/46/192 9/45/193 73/138/194
f 10/46/192 71/137/191 72/139/195 1/47/196
f 1/27/196 72/140/195 80/141/197 2/28/198
f 73/142/194 9/43/193 8/41/199 74/143/200
f 74/143/200 8/41/199 7/38/201 75/144/202
f 75/144/202 7/38/201 6/37/203 76/145/204
f 76/146/204 6/35/203 5/32/205 77/147/206
f 77/147/206 5/32/205 4/31/207 78/148/208
f 78/149/208 4/30/207 3/29/209 79/150/210
f 79/150/210 3/29/209 2/28/198 80/141/197
s 36
f 81/151/211 71/152/212 73/153/213 83/154/214
f 71/152/212 81/151/211 82/155/215 72/156/216
f 72/156/216 82/155/215 90/157/217 80/158/218
f 83/154/214 73/153/213 74/159/219 84/160/220
f 84/160/220 74/159/219 75/161/221 85/162/222
f 85/162/222 75/161/221 76/163/223 86/164/224
f 86/164/224 76/163/223 77/165/225 87/166/226
f 87/166/226 77/165/225 78/167/227 88/168/228
f 88/168/228 78/167/227 79/169/229 89/170/230
f 89/170/230 79/169/229 80/158/218 90/157/217
s 37
f 92/171/231 91/172/232 93/173/233 94/174/234 95/175/235 96/176/236 97/177/237 98/178/238 99/179/239 100/180/240
s 38
f 82/181/241 81/182/242 91/183/243 92/184/244
s 39
f 81/182/245 83/185/246 93/186/247 91/183/248
s 40
f 83/187/249 84/188/250 94/189/251 93/190/252
s 41
f 84/188/253 85/191/254 95/192/255 94/189/256
s 42
f 85/191/257 86/193/258 96/194/259 95/192/260
s 43
f 86/195/261 87/196/262 97/197/263 96/198/264
s 44
f 87/196/265 88/199/266 98/200/267 97/197/268
s 45
f 88/201/269 89/202/270 99/203/271 98/204/272
s 46
f 89/202/273 90/205/274 100/206/275 99/203/276
s 47
f 90/205/277 82/207/278 92/208/279 100/206/280

# 92 faces
