# Wavefront Obj file
# 
# verts: 16 uv-s: 48
mtllib Drain UV.mtl

g default

v -9.091160 -0.734969 181.558075
v 5.499517 -0.734969 181.558075
v 5.499517 1.011507 181.558075
v -9.091160 1.011507 181.558075
v -9.091160 -0.734969 170.827133
v -9.091160 1.510653 170.827133
v 5.499517 -0.734969 170.827133
v 5.499517 1.510653 170.827133
v 4.661455 1.018945 170.827133
v -7.858303 1.018945 170.827133
v -7.858303 -0.206329 170.827133
v 4.661455 -0.206329 170.827133
v -7.858303 -0.206329 173.999008
v -7.858303 1.018945 173.999008
v 4.661455 1.018945 173.999008
v 4.661455 -0.206329 173.999008
# 16 positions

vt 0.934228 0.574797
vt 0.934228 0.010000
vt 0.866622 0.010000
vt 0.866622 0.574797
vt 0.583659 0.010000
vt 0.583659 0.425389
vt 0.651264 0.425389
vt 0.670585 0.010000
vt 0.010000 0.425389
vt 0.574797 0.425389
vt 0.574797 0.010000
vt 0.010000 0.010000
vt 0.679268 0.010000
vt 0.679268 0.425389
vt 0.766195 0.425389
vt 0.746874 0.010000
vt 0.293739 0.850569
vt 0.858537 0.850569
vt 0.858537 0.434731
vt 0.293739 0.434731
vt 0.858537 0.859252
vt 0.293738 0.859252
vt 0.326179 0.878286
vt 0.810813 0.878286
vt 0.810812 0.925715
vt 0.858535 0.946179
vt 0.293737 0.946179
vt 0.326178 0.925715
vt 0.990000 0.010000
vt 0.942570 0.010000
vt 0.942570 0.494633
vt 0.990000 0.494633
vt 0.814715 0.141463
vt 0.767286 0.141463
vt 0.767286 0.264245
vt 0.814715 0.264245
vt 0.010000 0.433659
vt 0.010000 0.918293
vt 0.132782 0.918293
vt 0.132782 0.433659
vt 0.808740 0.010000
vt 0.761310 0.010000
vt 0.761310 0.132782
vt 0.808740 0.132782
vt 0.141463 0.433659
vt 0.141463 0.918293
vt 0.264245 0.918293
vt 0.264245 0.433659
# 48 texture coordinates

vn -0.000000 -0.000000 1.000000
vn -0.000000 -0.000000 1.000000
vn -0.000000 -0.000000 1.000000
vn -0.000000 -0.000000 1.000000
vn -1.000000 -0.000000 -0.000000
vn -1.000000 -0.000000 -0.000000
vn -1.000000 -0.000000 -0.000000
vn -1.000000 -0.000000 -0.000000
vn -0.000000 -1.000000 -0.000000
vn -0.000000 -1.000000 -0.000000
vn -0.000000 -1.000000 -0.000000
vn -0.000000 -1.000000 -0.000000
vn 1.000000 -0.000000 -0.000000
vn 1.000000 -0.000000 -0.000000
vn 1.000000 -0.000000 -0.000000
vn 1.000000 -0.000000 -0.000000
vn -0.000000 0.998920 0.046464
vn -0.000000 0.998920 0.046464
vn -0.000000 0.998920 0.046464
vn -0.000000 0.998920 0.046464
vn -0.000000 -0.000000 -1.000000
vn -0.000000 -0.000000 -1.000000
vn -0.000000 -0.000000 -1.000000
vn -0.000000 -0.000000 1.000000
vn -0.000000 -0.000000 -1.000000
vn -0.000000 -0.000000 -1.000000
vn -0.000000 -0.000000 -1.000000
vn -0.000000 -0.000000 1.000000
vn -0.000000 -0.000000 -1.000000
vn -0.000000 -0.000000 -1.000000
vn -0.000000 -0.000000 -1.000000
vn -0.000000 -0.000000 -1.000000
vn 1.000000 -0.000000 -0.000000
vn 1.000000 -0.000000 -0.000000
vn 1.000000 -0.000000 -0.000000
vn 1.000000 -0.000000 -0.000000
vn -0.000000 1.000000 -0.000000
vn -0.000000 1.000000 -0.000000
vn -0.000000 1.000000 -0.000000
vn -0.000000 1.000000 -0.000000
vn -1.000000 -0.000000 -0.000000
vn -1.000000 -0.000000 -0.000000
vn -1.000000 -0.000000 -0.000000
vn -1.000000 -0.000000 -0.000000
vn -0.000000 -1.000000 -0.000000
vn -0.000000 -1.000000 -0.000000
vn -0.000000 -1.000000 -0.000000
vn -0.000000 -1.000000 -0.000000
# 48 normals

g Drain1

# 0 positions

# 0 texture coordinates

# 0 normals

usemtl initialShadingGroup
s 1
f 1/1/1 2/2/2 3/3/3 4/4/4
s 2
f 5/5/5 1/6/6 4/7/7 6/8/8
s 3
f 5/9/9 7/10/10 2/11/11 1/12/12
s 4
f 2/13/13 7/14/14 8/15/15 3/16/16
s 5
f 4/17/17 3/18/18 8/19/19 6/20/20
s 6
f 6/21/21 8/22/22 9/23/23 10/24/24 11/25/25 5/26/26
f 8/22/22 7/27/27 5/26/26 11/25/25 12/28/28 9/23/23
s 7
f 13/29/29 14/30/30 15/31/31 16/32/32
s 8
f 11/33/33 10/34/34 14/35/35 13/36/36
s 9
f 12/37/37 11/38/38 13/39/39 16/40/40
s 10
f 9/41/41 12/42/42 16/43/43 15/44/44
s 11
f 10/45/45 9/46/46 15/47/47 14/48/48

# 12 faces
