# Wavefront Obj file
# 
# verts: 80 uv-s: 105
mtllib Hologram Big UV.mtl

g default

v 76.798439 224.585922 -184.732819
v 73.698204 224.585922 -204.306961
v 64.700966 224.585922 -221.965057
v 50.687428 224.585922 -235.978577
v 33.029339 224.585922 -244.975830
v 13.455201 224.585922 -248.076080
v -6.118938 224.585922 -244.975845
v -23.777027 224.585922 -235.978577
v -37.790569 224.585922 -221.965057
v -46.787815 224.585922 -204.306976
v -49.888054 224.585922 -184.732803
v -46.787815 224.585922 -165.158676
v -37.790569 224.585922 -147.500580
v -23.777027 224.585922 -133.487030
v -6.118937 224.585922 -124.489784
v 13.455206 224.585922 -121.389565
v 33.029354 224.585922 -124.489784
v 50.687447 224.585922 -133.487030
v 64.700989 224.585922 -147.500580
v 73.698235 224.585922 -165.158691
v 76.798439 274.358398 -184.732819
v 73.698204 274.358398 -204.306961
v 64.700966 274.358398 -221.965057
v 50.687428 274.358398 -235.978577
v 33.029339 274.358398 -244.975830
v 13.455201 274.358398 -248.076080
v -6.118938 274.358398 -244.975845
v -23.777027 274.358398 -235.978577
v -37.790569 274.358398 -221.965057
v -46.787815 274.358398 -204.306976
v -49.888054 274.358398 -184.732803
v -46.787815 274.358398 -165.158676
v -37.790569 274.358398 -147.500580
v -23.777027 274.358398 -133.487030
v -6.118937 274.358398 -124.489784
v 13.455206 274.358398 -121.389565
v 33.029354 274.358398 -124.489784
v 50.687447 274.358398 -133.487030
v 64.700989 274.358398 -147.500580
v 73.698235 274.358398 -165.158691
v 77.438278 274.358398 -184.732819
v 74.306717 274.358398 -204.504669
v 65.218597 274.358398 -222.341125
v 51.063511 274.358398 -236.496201
v 33.227055 274.358398 -245.584320
v 13.455200 274.358398 -248.715881
v -6.316658 274.358398 -245.584320
v -24.153111 274.358398 -236.496201
v -38.308201 274.358398 -222.341125
v -47.396328 274.358398 -204.504669
v -50.527885 274.358398 -184.732819
v -47.396328 274.358398 -164.960968
v -38.308208 274.358398 -147.124496
v -24.153118 274.358398 -132.969406
v -6.316666 274.358398 -123.881271
v 13.455201 274.358398 -120.749725
v 33.227070 274.358398 -123.881271
v 51.063530 274.358398 -132.969406
v 65.218628 274.358398 -147.124496
v 74.306763 274.358398 -164.960953
v 77.438278 224.585922 -184.732819
v 74.306717 224.585922 -204.504669
v 65.218597 224.585922 -222.341125
v 51.063511 224.585922 -236.496201
v 33.227055 224.585922 -245.584320
v 13.455200 224.585922 -248.715881
v -6.316658 224.585922 -245.584320
v -24.153111 224.585922 -236.496201
v -38.308201 224.585922 -222.341125
v -47.396328 224.585922 -204.504669
v -50.527885 224.585922 -184.732819
v -47.396328 224.585922 -164.960968
v -38.308208 224.585922 -147.124496
v -24.153118 224.585922 -132.969406
v -6.316666 224.585922 -123.881271
v 13.455201 224.585922 -120.749725
v 33.227070 224.585922 -123.881271
v 51.063530 224.585922 -132.969406
v 65.218628 224.585922 -147.124496
v 74.306763 224.585922 -164.960953
# 80 positions

vt 0.050000 1.000000
vt 0.000000 1.000000
vt 0.000000 0.750000
vt 0.050000 0.750000
vt 0.100000 1.000000
vt 0.100000 0.750000
vt 0.150000 1.000000
vt 0.150000 0.750000
vt 0.200000 1.000000
vt 0.200000 0.750000
vt 0.250000 1.000000
vt 0.250000 0.750000
vt 0.300000 1.000000
vt 0.300000 0.750000
vt 0.350000 1.000000
vt 0.350000 0.750000
vt 0.400000 1.000000
vt 0.400000 0.750000
vt 0.450000 1.000000
vt 0.450000 0.750000
vt 0.500000 1.000000
vt 0.500000 0.750000
vt 0.550000 1.000000
vt 0.550000 0.750000
vt 0.600000 1.000000
vt 0.600000 0.750000
vt 0.650000 1.000000
vt 0.650000 0.750000
vt 0.700000 1.000000
vt 0.700000 0.750000
vt 0.750000 1.000000
vt 0.750000 0.750000
vt 0.800000 1.000000
vt 0.800000 0.750000
vt 0.850000 1.000000
vt 0.850000 0.750000
vt 0.900000 1.000000
vt 0.900000 0.750000
vt 0.950000 1.000000
vt 0.950000 0.750000
vt 1.000000 1.000000
vt 1.000000 0.750000
vt 0.000000 0.500000
vt 0.050000 0.500000
vt 0.100000 0.500000
vt 0.150000 0.500000
vt 0.200000 0.500000
vt 0.250000 0.500000
vt 0.300000 0.500000
vt 0.350000 0.500000
vt 0.400000 0.500000
vt 0.450000 0.500000
vt 0.500000 0.500000
vt 0.550000 0.500000
vt 0.600000 0.500000
vt 0.650000 0.500000
vt 0.700000 0.500000
vt 0.750000 0.500000
vt 0.800000 0.500000
vt 0.850000 0.500000
vt 0.900000 0.500000
vt 0.950000 0.500000
vt 1.000000 0.500000
vt 0.000000 0.250000
vt 0.050000 0.250000
vt 0.100000 0.250000
vt 0.150000 0.250000
vt 0.200000 0.250000
vt 0.250000 0.250000
vt 0.300000 0.250000
vt 0.350000 0.250000
vt 0.400000 0.250000
vt 0.450000 0.250000
vt 0.500000 0.250000
vt 0.550000 0.250000
vt 0.600000 0.250000
vt 0.650000 0.250000
vt 0.700000 0.250000
vt 0.750000 0.250000
vt 0.800000 0.250000
vt 0.850000 0.250000
vt 0.900000 0.250000
vt 0.950000 0.250000
vt 1.000000 0.250000
vt 0.000000 0.000000
vt 0.050000 0.000000
vt 0.100000 0.000000
vt 0.150000 0.000000
vt 0.200000 0.000000
vt 0.250000 0.000000
vt 0.300000 0.000000
vt 0.350000 0.000000
vt 0.400000 0.000000
vt 0.450000 0.000000
vt 0.500000 0.000000
vt 0.550000 0.000000
vt 0.600000 0.000000
vt 0.650000 0.000000
vt 0.700000 0.000000
vt 0.750000 0.000000
vt 0.800000 0.000000
vt 0.850000 0.000000
vt 0.900000 0.000000
vt 0.950000 0.000000
vt 1.000000 0.000000
# 105 texture coordinates

vn -0.951057 -0.000000 0.309017
vn -1.000000 -0.000000 0.000001
vn -1.000000 -0.000000 0.000001
vn -0.951057 -0.000000 0.309017
vn -0.809017 -0.000000 0.587785
vn -0.809017 -0.000000 0.587785
vn -0.587785 -0.000000 0.809017
vn -0.587785 -0.000000 0.809017
vn -0.309017 -0.000000 0.951056
vn -0.309017 -0.000000 0.951056
vn -0.000000 -0.000000 1.000000
vn -0.000000 -0.000000 1.000000
vn 0.309017 -0.000000 0.951056
vn 0.309017 -0.000000 0.951056
vn 0.587785 -0.000000 0.809017
vn 0.587785 -0.000000 0.809017
vn 0.809017 -0.000000 0.587786
vn 0.809017 -0.000000 0.587786
vn 0.951057 -0.000000 0.309017
vn 0.951057 -0.000000 0.309017
vn 1.000000 -0.000000 -0.000000
vn 1.000000 -0.000000 -0.000000
vn 0.951056 -0.000000 -0.309017
vn 0.951056 -0.000000 -0.309017
vn 0.809017 -0.000000 -0.587785
vn 0.809017 -0.000000 -0.587785
vn 0.587785 -0.000000 -0.809017
vn 0.587785 -0.000000 -0.809017
vn 0.309017 -0.000000 -0.951057
vn 0.309017 -0.000000 -0.951057
vn -0.000000 -0.000000 -1.000000
vn -0.000000 -0.000000 -1.000000
vn -0.309016 -0.000000 -0.951057
vn -0.309016 -0.000000 -0.951057
vn -0.587785 -0.000000 -0.809017
vn -0.587785 -0.000000 -0.809017
vn -0.809017 -0.000000 -0.587785
vn -0.809017 -0.000000 -0.587785
vn -0.951057 -0.000000 -0.309016
vn -0.951057 -0.000000 -0.309016
vn -0.000000 1.000000 -0.000000
vn -0.000000 1.000000 -0.000000
vn -0.000000 1.000000 -0.000000
vn -0.000000 1.000000 -0.000000
vn -0.000000 1.000000 -0.000000
vn -0.000000 1.000000 -0.000000
vn -0.000000 1.000000 -0.000000
vn -0.000000 1.000000 -0.000000
vn -0.000000 1.000000 -0.000000
vn -0.000000 1.000000 -0.000000
vn -0.000000 1.000000 -0.000000
vn -0.000000 1.000000 -0.000000
vn -0.000000 1.000000 -0.000000
vn -0.000000 1.000000 -0.000000
vn -0.000000 1.000000 -0.000000
vn -0.000000 1.000000 -0.000000
vn -0.000000 1.000000 -0.000000
vn -0.000000 1.000000 -0.000000
vn -0.000000 1.000000 -0.000000
vn -0.000000 1.000000 -0.000000
vn -0.000000 1.000000 -0.000000
vn -0.000000 1.000000 -0.000000
vn -0.000000 1.000000 -0.000000
vn -0.000000 1.000000 -0.000000
vn -0.000000 1.000000 -0.000000
vn -0.000000 1.000000 -0.000000
vn -0.000000 1.000000 -0.000000
vn -0.000000 1.000000 -0.000000
vn -0.000000 1.000000 -0.000000
vn -0.000000 1.000000 -0.000000
vn -0.000000 1.000000 -0.000000
vn -0.000000 1.000000 -0.000000
vn -0.000000 1.000000 -0.000000
vn -0.000000 1.000000 -0.000000
vn -0.000000 1.000000 -0.000000
vn -0.000000 1.000000 -0.000000
vn -0.000000 1.000000 -0.000000
vn -0.000000 1.000000 -0.000000
vn -0.000000 1.000000 -0.000000
vn -0.000000 1.000000 -0.000000
vn 0.951056 -0.000000 -0.309017
vn 1.000000 -0.000000 -0.000001
vn 1.000000 -0.000000 -0.000001
vn 0.951056 -0.000000 -0.309017
vn 0.809017 -0.000000 -0.587785
vn 0.809017 -0.000000 -0.587785
vn 0.587785 -0.000000 -0.809017
vn 0.587785 -0.000000 -0.809017
vn 0.309017 -0.000000 -0.951057
vn 0.309017 -0.000000 -0.951057
vn -0.000000 -0.000000 -1.000000
vn -0.000000 -0.000000 -1.000000
vn -0.309017 -0.000000 -0.951057
vn -0.309017 -0.000000 -0.951057
vn -0.587785 -0.000000 -0.809017
vn -0.587785 -0.000000 -0.809017
vn -0.809017 -0.000000 -0.587785
vn -0.809017 -0.000000 -0.587785
vn -0.951056 -0.000000 -0.309017
vn -0.951056 -0.000000 -0.309017
vn -1.000000 -0.000000 -0.000000
vn -1.000000 -0.000000 -0.000000
vn -0.951057 -0.000000 0.309017
vn -0.951057 -0.000000 0.309017
vn -0.809017 -0.000000 0.587785
vn -0.809017 -0.000000 0.587785
vn -0.587785 -0.000000 0.809017
vn -0.587785 -0.000000 0.809017
vn -0.309017 -0.000000 0.951057
vn -0.309017 -0.000000 0.951057
vn -0.000000 -0.000000 1.000000
vn -0.000000 -0.000000 1.000000
vn 0.309017 -0.000000 0.951057
vn 0.309017 -0.000000 0.951057
vn 0.587785 -0.000000 0.809017
vn 0.587785 -0.000000 0.809017
vn 0.809017 -0.000000 0.587785
vn 0.809017 -0.000000 0.587785
vn 0.951057 -0.000000 0.309016
vn 0.951057 -0.000000 0.309016
vn -0.000000 -1.000000 -0.000000
vn -0.000000 -1.000000 -0.000000
vn -0.000000 -1.000000 -0.000000
vn -0.000000 -1.000000 -0.000000
vn -0.000000 -1.000000 -0.000000
vn -0.000000 -1.000000 -0.000000
vn -0.000000 -1.000000 -0.000000
vn -0.000000 -1.000000 -0.000000
vn -0.000000 -1.000000 -0.000000
vn -0.000000 -1.000000 -0.000000
vn -0.000000 -1.000000 -0.000000
vn -0.000000 -1.000000 -0.000000
vn -0.000000 -1.000000 -0.000000
vn -0.000000 -1.000000 -0.000000
vn -0.000000 -1.000000 -0.000000
vn -0.000000 -1.000000 -0.000000
vn -0.000000 -1.000000 -0.000000
vn -0.000000 -1.000000 -0.000000
vn -0.000000 -1.000000 -0.000000
vn -0.000000 -1.000000 -0.000000
vn -0.000000 -1.000000 -0.000000
vn -0.000000 -1.000000 -0.000000
vn -0.000000 -1.000000 -0.000000
vn -0.000000 -1.000000 -0.000000
vn -0.000000 -1.000000 -0.000000
vn -0.000000 -1.000000 -0.000000
vn -0.000000 -1.000000 -0.000000
vn -0.000000 -1.000000 -0.000000
vn -0.000000 -1.000000 -0.000000
vn -0.000000 -1.000000 -0.000000
vn -0.000000 -1.000000 -0.000000
vn -0.000000 -1.000000 -0.000000
vn -0.000000 -1.000000 -0.000000
vn -0.000000 -1.000000 -0.000000
vn -0.000000 -1.000000 -0.000000
vn -0.000000 -1.000000 -0.000000
vn -0.000000 -1.000000 -0.000000
vn -0.000000 -1.000000 -0.000000
vn -0.000000 -1.000000 -0.000000
vn -0.000000 -1.000000 -0.000000
# 160 normals

g Hologram_Big

# 0 positions

# 0 texture coordinates

# 0 normals

usemtl initialShadingGroup
s 1
f 2/1/1 1/2/2 21/3/3 22/4/4
f 3/5/5 2/1/1 22/4/4 23/6/6
f 4/7/7 3/5/5 23/6/6 24/8/8
f 5/9/9 4/7/7 24/8/8 25/10/10
f 6/11/11 5/9/9 25/10/10 26/12/12
f 7/13/13 6/11/11 26/12/12 27/14/14
f 8/15/15 7/13/13 27/14/14 28/16/16
f 9/17/17 8/15/15 28/16/16 29/18/18
f 10/19/19 9/17/17 29/18/18 30/20/20
f 11/21/21 10/19/19 30/20/20 31/22/22
f 12/23/23 11/21/21 31/22/22 32/24/24
f 13/25/25 12/23/23 32/24/24 33/26/26
f 14/27/27 13/25/25 33/26/26 34/28/28
f 15/29/29 14/27/27 34/28/28 35/30/30
f 16/31/31 15/29/29 35/30/30 36/32/32
f 17/33/33 16/31/31 36/32/32 37/34/34
f 18/35/35 17/33/33 37/34/34 38/36/36
f 19/37/37 18/35/35 38/36/36 39/38/38
f 20/39/39 19/37/37 39/38/38 40/40/40
f 1/41/2 20/39/39 40/40/40 21/42/3
s 2
f 22/4/41 21/3/42 41/43/43 42/44/44
f 23/6/45 22/4/41 42/44/44 43/45/46
f 24/8/47 23/6/45 43/45/46 44/46/48
f 25/10/49 24/8/47 44/46/48 45/47/50
f 26/12/51 25/10/49 45/47/50 46/48/52
f 27/14/53 26/12/51 46/48/52 47/49/54
f 28/16/55 27/14/53 47/49/54 48/50/56
f 29/18/57 28/16/55 48/50/56 49/51/58
f 30/20/59 29/18/57 49/51/58 50/52/60
f 31/22/61 30/20/59 50/52/60 51/53/62
f 32/24/63 31/22/61 51/53/62 52/54/64
f 33/26/65 32/24/63 52/54/64 53/55/66
f 34/28/67 33/26/65 53/55/66 54/56/68
f 35/30/69 34/28/67 54/56/68 55/57/70
f 36/32/71 35/30/69 55/57/70 56/58/72
f 37/34/73 36/32/71 56/58/72 57/59/74
f 38/36/75 37/34/73 57/59/74 58/60/76
f 39/38/77 38/36/75 58/60/76 59/61/78
f 40/40/79 39/38/77 59/61/78 60/62/80
f 21/42/42 40/40/79 60/62/80 41/63/43
s 3
f 42/44/81 41/43/82 61/64/83 62/65/84
f 43/45/85 42/44/81 62/65/84 63/66/86
f 44/46/87 43/45/85 63/66/86 64/67/88
f 45/47/89 44/46/87 64/67/88 65/68/90
f 46/48/91 45/47/89 65/68/90 66/69/92
f 47/49/93 46/48/91 66/69/92 67/70/94
f 48/50/95 47/49/93 67/70/94 68/71/96
f 49/51/97 48/50/95 68/71/96 69/72/98
f 50/52/99 49/51/97 69/72/98 70/73/100
f 51/53/101 50/52/99 70/73/100 71/74/102
f 52/54/103 51/53/101 71/74/102 72/75/104
f 53/55/105 52/54/103 72/75/104 73/76/106
f 54/56/107 53/55/105 73/76/106 74/77/108
f 55/57/109 54/56/107 74/77/108 75/78/110
f 56/58/111 55/57/109 75/78/110 76/79/112
f 57/59/113 56/58/111 76/79/112 77/80/114
f 58/60/115 57/59/113 77/80/114 78/81/116
f 59/61/117 58/60/115 78/81/116 79/82/118
f 60/62/119 59/61/117 79/82/118 80/83/120
f 41/63/82 60/62/119 80/83/120 61/84/83
s 4
f 62/65/121 61/64/122 1/85/123 2/86/124
f 63/66/125 62/65/121 2/86/124 3/87/126
f 64/67/127 63/66/125 3/87/126 4/88/128
f 65/68/129 64/67/127 4/88/128 5/89/130
f 66/69/131 65/68/129 5/89/130 6/90/132
f 67/70/133 66/69/131 6/90/132 7/91/134
f 68/71/135 67/70/133 7/91/134 8/92/136
f 69/72/137 68/71/135 8/92/136 9/93/138
f 70/73/139 69/72/137 9/93/138 10/94/140
f 71/74/141 70/73/139 10/94/140 11/95/142
f 72/75/143 71/74/141 11/95/142 12/96/144
f 73/76/145 72/75/143 12/96/144 13/97/146
f 74/77/147 73/76/145 13/97/146 14/98/148
f 75/78/149 74/77/147 14/98/148 15/99/150
f 76/79/151 75/78/149 15/99/150 16/100/152
f 77/80/153 76/79/151 16/100/152 17/101/154
f 78/81/155 77/80/153 17/101/154 18/102/156
f 79/82/157 78/81/155 18/102/156 19/103/158
f 80/83/159 79/82/157 19/103/158 20/104/160
f 61/84/122 80/83/159 20/104/160 1/105/123

# 80 faces
