# Wavefront Obj file
# 
# verts: 32 uv-s: 96
mtllib Ichiraku Ramen Apartment Billboard UV.mtl

g default

v -63.004337 90.425056 34.212425
v -63.004337 90.425056 -16.207886
v -63.004337 109.082062 34.212425
v -63.004337 109.082062 -16.207886
v -64.220917 109.082062 34.212425
v -64.220917 109.082062 -16.207886
v -64.220917 90.425056 34.212425
v -64.220917 90.425056 -16.207886
v -9.301168 90.425056 34.212425
v -9.301168 90.425056 -16.207886
v -9.301168 109.082062 34.212425
v -9.301168 109.082062 -16.207886
v -10.517746 109.082062 34.212425
v -10.517746 109.082062 -16.207886
v -10.517746 90.425056 34.212425
v -10.517746 90.425056 -16.207886
v -61.991287 90.425056 -13.261170
v -11.570982 90.425056 -13.261170
v -61.991287 109.082062 -13.261170
v -11.570982 109.082062 -13.261170
v -61.991287 109.082062 -14.477748
v -11.570982 109.082062 -14.477748
v -61.991287 90.425056 -14.477748
v -11.570982 90.425056 -14.477748
v -61.906994 90.425056 32.410000
v -11.486685 90.425056 32.410000
v -61.906994 109.082062 32.410000
v -11.486685 109.082062 32.410000
v -61.906994 109.082062 31.193420
v -11.486685 109.082062 31.193420
v -61.906994 90.425056 31.193420
v -11.486685 90.425056 31.193420
# 32 positions

vt 0.010000 0.189907
vt 0.496195 0.189907
vt 0.496195 0.010000
vt 0.010000 0.010000
vt 0.881909 0.010000
vt 0.881909 0.496195
vt 0.893640 0.496195
vt 0.893640 0.010000
vt 0.010000 0.378526
vt 0.496195 0.378526
vt 0.496195 0.198619
vt 0.010000 0.198619
vt 0.943415 0.010000
vt 0.943415 0.496195
vt 0.955146 0.496195
vt 0.955146 0.010000
vt 0.684519 0.536904
vt 0.684519 0.525172
vt 0.504612 0.525172
vt 0.504612 0.536904
vt 0.684519 0.557406
vt 0.684519 0.545675
vt 0.504612 0.545675
vt 0.504612 0.557406
vt 0.010000 0.567145
vt 0.496195 0.567145
vt 0.496195 0.387239
vt 0.010000 0.387239
vt 0.922913 0.010000
vt 0.922913 0.496195
vt 0.934644 0.496195
vt 0.934644 0.010000
vt 0.504612 0.010000
vt 0.504612 0.496195
vt 0.684519 0.496195
vt 0.684519 0.010000
vt 0.970978 0.990000
vt 0.970978 0.503805
vt 0.959247 0.503805
vt 0.959247 0.990000
vt 0.010000 0.596360
vt 0.010000 0.608091
vt 0.189907 0.608091
vt 0.189907 0.596360
vt 0.010000 0.616862
vt 0.010000 0.628593
vt 0.189907 0.628593
vt 0.189907 0.616862
vt 0.741925 0.576369
vt 0.255730 0.576369
vt 0.255730 0.756276
vt 0.741925 0.756276
vt 0.902411 0.010000
vt 0.902411 0.496195
vt 0.914142 0.496195
vt 0.914142 0.010000
vt 0.693231 0.010000
vt 0.693231 0.496195
vt 0.873138 0.496195
vt 0.873138 0.010000
vt 0.950476 0.990000
vt 0.950476 0.503805
vt 0.938745 0.503805
vt 0.938745 0.990000
vt 0.010000 0.575858
vt 0.010000 0.587590
vt 0.189906 0.587590
vt 0.189906 0.575858
vt 0.684519 0.516402
vt 0.684519 0.504670
vt 0.504613 0.504670
vt 0.504613 0.516402
vt 0.930031 0.990000
vt 0.930031 0.503804
vt 0.750126 0.503804
vt 0.750126 0.990000
vt 0.741925 0.953666
vt 0.255729 0.953666
vt 0.255729 0.965398
vt 0.741925 0.965398
vt 0.741925 0.764990
vt 0.255729 0.764990
vt 0.255729 0.944895
vt 0.741925 0.944895
vt 0.963917 0.010000
vt 0.963917 0.496196
vt 0.975649 0.496196
vt 0.975649 0.010000
vt 0.010000 0.637364
vt 0.010000 0.649096
vt 0.189906 0.649096
vt 0.189906 0.637364
vt 0.010000 0.657866
vt 0.010000 0.669598
vt 0.189906 0.669598
vt 0.189906 0.657866
# 96 texture coordinates

vn 1.000000 -0.000000 -0.000000
vn 1.000000 -0.000000 -0.000000
vn 1.000000 -0.000000 -0.000000
vn 1.000000 -0.000000 -0.000000
vn -0.000000 1.000000 -0.000000
vn -0.000000 1.000000 -0.000000
vn -0.000000 1.000000 -0.000000
vn -0.000000 1.000000 -0.000000
vn -1.000000 -0.000000 -0.000000
vn -1.000000 -0.000000 -0.000000
vn -1.000000 -0.000000 -0.000000
vn -1.000000 -0.000000 -0.000000
vn -0.000000 -1.000000 -0.000000
vn -0.000000 -1.000000 -0.000000
vn -0.000000 -1.000000 -0.000000
vn -0.000000 -1.000000 -0.000000
vn -0.000000 -0.000000 -1.000000
vn -0.000000 -0.000000 -1.000000
vn -0.000000 -0.000000 -1.000000
vn -0.000000 -0.000000 -1.000000
vn -0.000000 -0.000000 1.000000
vn -0.000000 -0.000000 1.000000
vn -0.000000 -0.000000 1.000000
vn -0.000000 -0.000000 1.000000
vn 1.000000 -0.000000 -0.000000
vn 1.000000 -0.000000 -0.000000
vn 1.000000 -0.000000 -0.000000
vn 1.000000 -0.000000 -0.000000
vn -0.000000 1.000000 -0.000000
vn -0.000000 1.000000 -0.000000
vn -0.000000 1.000000 -0.000000
vn -0.000000 1.000000 -0.000000
vn -1.000000 -0.000000 -0.000000
vn -1.000000 -0.000000 -0.000000
vn -1.000000 -0.000000 -0.000000
vn -1.000000 -0.000000 -0.000000
vn -0.000000 -1.000000 -0.000000
vn -0.000000 -1.000000 -0.000000
vn -0.000000 -1.000000 -0.000000
vn -0.000000 -1.000000 -0.000000
vn -0.000000 -0.000000 -1.000000
vn -0.000000 -0.000000 -1.000000
vn -0.000000 -0.000000 -1.000000
vn -0.000000 -0.000000 -1.000000
vn -0.000000 -0.000000 1.000000
vn -0.000000 -0.000000 1.000000
vn -0.000000 -0.000000 1.000000
vn -0.000000 -0.000000 1.000000
vn -0.000000 -0.000000 1.000000
vn -0.000000 -0.000000 1.000000
vn -0.000000 -0.000000 1.000000
vn -0.000000 -0.000000 1.000000
vn -0.000000 1.000000 -0.000000
vn -0.000000 1.000000 -0.000000
vn -0.000000 1.000000 -0.000000
vn -0.000000 1.000000 -0.000000
vn -0.000000 -0.000000 -1.000000
vn -0.000000 -0.000000 -1.000000
vn -0.000000 -0.000000 -1.000000
vn -0.000000 -0.000000 -1.000000
vn -0.000000 -1.000000 -0.000000
vn -0.000000 -1.000000 -0.000000
vn -0.000000 -1.000000 -0.000000
vn -0.000000 -1.000000 -0.000000
vn 1.000000 -0.000000 -0.000000
vn 1.000000 -0.000000 -0.000000
vn 1.000000 -0.000000 -0.000000
vn 1.000000 -0.000000 -0.000000
vn -1.000000 -0.000000 -0.000000
vn -1.000000 -0.000000 -0.000000
vn -1.000000 -0.000000 -0.000000
vn -1.000000 -0.000000 -0.000000
vn -0.000000 -0.000000 1.000000
vn -0.000000 -0.000000 1.000000
vn -0.000000 -0.000000 1.000000
vn -0.000000 -0.000000 1.000000
vn -0.000000 1.000000 -0.000000
vn -0.000000 1.000000 -0.000000
vn -0.000000 1.000000 -0.000000
vn -0.000000 1.000000 -0.000000
vn -0.000000 -0.000000 -1.000000
vn -0.000000 -0.000000 -1.000000
vn -0.000000 -0.000000 -1.000000
vn -0.000000 -0.000000 -1.000000
vn -0.000000 -1.000000 -0.000000
vn -0.000000 -1.000000 -0.000000
vn -0.000000 -1.000000 -0.000000
vn -0.000000 -1.000000 -0.000000
vn 1.000000 -0.000000 -0.000000
vn 1.000000 -0.000000 -0.000000
vn 1.000000 -0.000000 -0.000000
vn 1.000000 -0.000000 -0.000000
vn -1.000000 -0.000000 -0.000000
vn -1.000000 -0.000000 -0.000000
vn -1.000000 -0.000000 -0.000000
vn -1.000000 -0.000000 -0.000000
# 96 normals

g Billboard_Ichiraku_Ramen

# 0 positions

# 0 texture coordinates

# 0 normals

usemtl initialShadingGroup
s 1
f 1/1/1 2/2/2 4/3/3 3/4/4
s 2
f 3/5/5 4/6/6 6/7/7 5/8/8
s 3
f 5/9/9 6/10/10 8/11/11 7/12/12
s 4
f 7/13/13 8/14/14 2/15/15 1/16/16
s 5
f 2/17/17 8/18/18 6/19/19 4/20/20
s 6
f 7/21/21 1/22/22 3/23/23 5/24/24
s 7
f 9/25/25 10/26/26 12/27/27 11/28/28
s 8
f 11/29/29 12/30/30 14/31/31 13/32/32
s 9
f 13/33/33 14/34/34 16/35/35 15/36/36
s 10
f 15/37/37 16/38/38 10/39/39 9/40/40
s 11
f 10/41/41 16/42/42 14/43/43 12/44/44
s 12
f 15/45/45 9/46/46 11/47/47 13/48/48
s 13
f 17/49/49 18/50/50 20/51/51 19/52/52
s 14
f 19/53/53 20/54/54 22/55/55 21/56/56
s 15
f 21/57/57 22/58/58 24/59/59 23/60/60
s 16
f 23/61/61 24/62/62 18/63/63 17/64/64
s 17
f 18/65/65 24/66/66 22/67/67 20/68/68
s 18
f 23/69/69 17/70/70 19/71/71 21/72/72
s 19
f 25/73/73 26/74/74 28/75/75 27/76/76
s 20
f 27/77/77 28/78/78 30/79/79 29/80/80
s 21
f 29/81/81 30/82/82 32/83/83 31/84/84
s 22
f 31/85/85 32/86/86 26/87/87 25/88/88
s 23
f 26/89/89 32/90/90 30/91/91 28/92/92
s 24
f 31/93/93 25/94/94 27/95/95 29/96/96

# 24 faces
