# Wavefront Obj file
# 
# verts: 69 uv-s: 159
mtllib Kyoko san's wall UV.mtl

g default

v 9.473072 0.265527 182.727142
v 12.036152 0.265527 182.727142
v 9.473072 0.265527 107.927040
v 12.036152 0.265527 107.927040
v 9.473072 15.080406 182.727142
v 10.113773 15.721112 182.086441
v 11.395443 15.721112 182.086441
v 12.036152 15.080406 182.727142
v 10.113773 15.721112 108.567726
v 9.473072 15.080406 107.927040
v 11.395443 15.721112 108.567726
v 12.036152 15.080406 107.927040
v 74.574257 0.265526 182.820877
v 74.574257 0.265526 180.257782
v 9.483860 0.265526 182.820877
v 9.483860 0.265526 180.257782
v 77.860924 0.265526 182.820877
v 77.860924 0.265526 180.257782
v 74.574257 0.265525 65.735321
v 77.860924 0.265525 65.735321
v 75.121140 15.721112 182.273956
v 74.027374 15.721112 182.273956
v 74.574257 15.080406 182.820877
v 74.574257 15.080406 180.257782
v 74.027374 15.721112 180.804642
v 75.121140 15.721112 180.257782
v 10.124565 15.721112 182.180145
v 9.483860 15.080406 182.820877
v 10.124565 15.721112 180.898468
v 9.483860 15.080406 180.257782
v 77.220222 15.721112 182.180145
v 77.860924 15.080406 182.820877
v 77.220222 15.721112 180.257782
v 77.860924 15.080406 180.257782
v 74.574257 15.080404 65.735321
v 75.214966 15.721112 66.376007
v 77.220222 15.721112 66.376007
v 77.860924 15.080404 65.735321
v 74.692322 0.265526 65.726997
v 74.051605 15.721112 67.649361
v 74.051605 15.721112 66.367691
v 74.692322 15.080406 65.726997
v 10.124561 15.721112 66.367691
v 9.483860 15.080406 65.726997
v 9.789635 0.265526 67.984291
v 9.483860 0.571298 68.290077
v 9.483860 0.571298 65.726997
v 9.789635 0.265526 65.726997
v 74.692322 0.571298 68.290077
v 74.692322 0.265526 67.984291
v 10.124561 15.721112 67.343597
v 10.430336 15.721112 67.649361
v 10.038670 15.283482 68.086990
v 9.483860 14.793213 68.141403
v 74.692322 14.846378 68.290077
v 74.692322 15.080406 68.073853
v 74.526840 15.245889 68.124580
v 9.473072 0.265527 96.678177
v 12.036152 0.265527 96.678177
v 9.473072 0.265527 65.750572
v 12.036152 0.265527 65.750572
v 9.473072 15.080406 96.678177
v 10.113773 15.721112 96.037460
v 11.395443 15.721112 96.037460
v 12.036152 15.080406 96.678177
v 10.113773 15.721112 66.391273
v 9.473072 15.080406 65.750572
v 11.395443 15.721112 66.391273
v 12.036152 15.080406 65.750572
# 69 positions

vt 0.552263 0.645805
vt 0.552263 0.628944
vt 0.060195 0.628944
vt 0.060195 0.645805
vt 0.784203 0.619512
vt 0.779597 0.613890
vt 0.274730 0.613922
vt 0.270055 0.619512
vt 0.784439 0.599976
vt 0.779764 0.605566
vt 0.270291 0.599976
vt 0.274897 0.605599
vt 0.220341 0.488590
vt 0.203480 0.488590
vt 0.203480 0.586049
vt 0.220341 0.586049
vt 0.562688 0.382878
vt 0.562688 0.399739
vt 0.660146 0.399739
vt 0.660146 0.382878
vt 0.060195 0.370927
vt 0.552263 0.370927
vt 0.552263 0.273468
vt 0.060195 0.273468
vt 0.552263 0.380488
vt 0.060195 0.380488
vt 0.060195 0.477947
vt 0.552263 0.477947
vt 0.013919 0.684548
vt 0.030779 0.684395
vt 0.026861 0.256304
vt 0.010000 0.256374
vt 0.027027 0.234683
vt 0.010112 0.234683
vt 0.780105 0.266372
vt 0.780393 0.244754
vt 0.254631 0.590424
vt 0.258226 0.584881
vt 0.236604 0.584867
vt 0.240815 0.590829
vt 0.041073 0.686137
vt 0.041073 0.693332
vt 0.054337 0.693332
vt 0.050739 0.686137
vt 0.261825 0.590421
vt 0.682209 0.590827
vt 0.686426 0.584867
vt 0.010000 0.219163
vt 0.010000 0.224705
vt 0.759165 0.225122
vt 0.763379 0.219161
vt 0.649972 0.819889
vt 0.653568 0.814335
vt 0.225387 0.814333
vt 0.229602 0.820293
vt 0.070298 0.597870
vt 0.064337 0.602086
vt 0.064337 0.610517
vt 0.070298 0.614732
vt 0.776024 0.113420
vt 0.780239 0.107459
vt 0.763378 0.107459
vt 0.763378 0.113419
vt 0.010000 0.107459
vt 0.014215 0.113420
vt 0.070298 0.487940
vt 0.064337 0.492155
vt 0.064337 0.505346
vt 0.070298 0.509561
vt 0.780241 0.010001
vt 0.763380 0.010000
vt 0.050122 0.265756
vt 0.041691 0.265756
vt 0.167756 0.614732
vt 0.167756 0.597870
vt 0.653568 0.716878
vt 0.225388 0.716878
vt 0.686439 0.487408
vt 0.258254 0.487420
vt 0.167756 0.487940
vt 0.167756 0.509561
vt 0.041691 0.707140
vt 0.054337 0.707140
vt 0.236633 0.487411
vt 0.010000 0.121705
vt 0.763379 0.121703
vt 0.803500 0.707140
vt 0.803500 0.693949
vt 0.010000 0.010001
vt 0.657756 0.817982
vt 0.190321 0.590574
vt 0.193158 0.585901
vt 0.192648 0.584412
vt 0.177317 0.584864
vt 0.181737 0.590829
vt 0.524487 0.659343
vt 0.529094 0.654737
vt 0.060195 0.654737
vt 0.064803 0.659343
vt 0.524487 0.668559
vt 0.064803 0.666361
vt 0.067001 0.668559
vt 0.990000 0.275859
vt 0.563043 0.275859
vt 0.561030 0.277870
vt 0.561031 0.373317
vt 0.990000 0.373317
vt 0.194189 0.489261
vt 0.192176 0.487249
vt 0.177317 0.487255
vt 0.194161 0.582981
vt 0.447735 0.844523
vt 0.449798 0.846585
vt 0.449798 0.829299
vt 0.447735 0.829299
vt 0.010000 0.844523
vt 0.010000 0.846585
vt 0.060195 0.672098
vt 0.064184 0.671706
vt 0.911122 0.385410
vt 0.907876 0.381761
vt 0.908224 0.810732
vt 0.911069 0.809641
vt 0.010000 0.829299
vt 0.527904 0.671977
vt 0.062246 0.519971
vt 0.060358 0.535854
vt 0.155805 0.535854
vt 0.155805 0.518993
vt 0.814313 0.381761
vt 0.814317 0.810732
vt 0.561862 0.629073
vt 0.561862 0.645934
vt 0.765317 0.645934
vt 0.765317 0.629073
vt 0.762568 0.674488
vt 0.757920 0.669841
vt 0.542891 0.669841
vt 0.538244 0.674488
vt 0.762568 0.655897
vt 0.757920 0.660545
vt 0.538244 0.655897
vt 0.542891 0.660545
vt 0.157654 0.562146
vt 0.157654 0.545286
vt 0.060195 0.545286
vt 0.060195 0.562146
vt 0.157654 0.588439
vt 0.157654 0.571578
vt 0.060195 0.571578
vt 0.060195 0.588439
vt 0.696541 0.382878
vt 0.696541 0.586333
vt 0.794000 0.586333
vt 0.794000 0.382878
vt 0.010000 0.815512
vt 0.213455 0.815512
vt 0.213455 0.718054
vt 0.010000 0.718054
# 159 texture coordinates

vn -0.000000 -1.000000 -0.000000
vn -0.000000 -1.000000 -0.000000
vn -0.000000 -1.000000 -0.000000
vn -0.000000 -1.000000 -0.000000
vn -0.707109 0.707104 -0.000000
vn -0.707109 0.707104 -0.000000
vn -0.707109 0.707104 -0.000000
vn -0.707109 0.707104 -0.000000
vn -0.000000 0.707104 0.707109
vn -0.000000 0.707104 0.707109
vn -0.000000 0.707104 0.707109
vn -0.000000 0.707104 0.707109
vn 0.707105 0.707108 -0.000000
vn 0.707105 0.707108 -0.000000
vn 0.707105 0.707108 -0.000000
vn 0.707105 0.707108 -0.000000
vn -0.000000 0.707096 -0.707118
vn -0.000000 0.707096 -0.707118
vn -0.000000 0.707096 -0.707118
vn -0.000000 0.707096 -0.707118
vn -0.000000 -0.000000 1.000000
vn -0.000000 -0.000000 1.000000
vn -0.000000 -0.000000 1.000000
vn -0.000000 -0.000000 1.000000
vn -0.000000 1.000000 -0.000000
vn -0.000000 1.000000 -0.000000
vn -0.000000 1.000000 -0.000000
vn -0.000000 1.000000 -0.000000
vn -0.000000 -0.000000 -1.000000
vn -0.000000 -0.000000 -1.000000
vn -0.000000 -0.000000 -1.000000
vn -0.000000 -0.000000 -1.000000
vn 1.000000 -0.000000 -0.000000
vn 1.000000 -0.000000 -0.000000
vn 1.000000 -0.000000 -0.000000
vn 1.000000 -0.000000 -0.000000
vn -1.000000 -0.000000 -0.000000
vn -1.000000 -0.000000 -0.000000
vn -1.000000 -0.000000 -0.000000
vn -1.000000 -0.000000 -0.000000
vn -0.000000 -1.000000 -0.000000
vn -0.000000 -1.000000 -0.000000
vn -0.000000 -1.000000 0.000000
vn -0.000000 -1.000000 -0.000000
vn -0.000000 -1.000000 0.000000
vn -0.000000 -1.000000 -0.000000
vn -0.000000 -1.000000 0.000000
vn -0.000000 -1.000000 0.000000
vn 0.022619 0.637842 0.769835
vn -0.000000 0.649246 0.760578
vn -0.000000 0.707121 0.707093
vn 0.030888 0.722058 0.691142
vn -0.000000 1.000000 -0.000000
vn -0.000000 1.000000 -0.000000
vn -0.000000 1.000000 -0.000000
vn -0.000000 1.000000 -0.000000
vn -0.001098 0.648703 0.761041
vn -0.001037 0.707639 0.706573
vn -0.000000 0.707121 0.707093
vn -0.760601 0.649220 -0.000000
vn -0.760601 0.649220 -0.000627
vn -0.706815 0.707398 -0.000582
vn -0.707106 0.707107 -0.000000
vn -0.001117 0.648652 -0.761084
vn -0.000000 0.649204 -0.760614
vn -0.000000 0.707096 -0.707118
vn -0.001037 0.707614 -0.706598
vn -0.707107 0.707106 -0.000000
vn -0.707107 0.707106 -0.000000
vn -0.707107 0.707106 -0.000000
vn -0.707107 0.707106 -0.000000
vn 0.707109 0.707104 -0.000000
vn 0.707109 0.707104 -0.000000
vn 0.707109 0.707104 -0.000000
vn 0.707109 0.707104 -0.000000
vn 0.707110 0.707103 -0.000000
vn 0.707110 0.707103 -0.000000
vn -0.000000 0.707095 -0.707119
vn -0.000000 0.707095 -0.707119
vn -0.000000 0.707095 -0.707119
vn -0.000000 0.707095 -0.707119
vn 1.000000 -0.000000 -0.000000
vn 1.000000 -0.000000 -0.000000
vn 1.000000 -0.000000 -0.000000
vn 1.000000 -0.000000 -0.000000
vn -0.000000 1.000000 -0.000000
vn -0.000000 1.000000 -0.000000
vn -1.000000 -0.000000 -0.000000
vn -1.000000 -0.000000 -0.000000
vn -1.000000 -0.000000 -0.000000
vn -1.000000 -0.000000 -0.000000
vn -0.000000 -0.000000 -1.000000
vn -0.000000 -0.000000 -1.000000
vn -0.000000 -0.000000 -1.000000
vn -0.000000 -0.000000 -1.000000
vn -0.000000 -0.000000 1.000000
vn -0.000000 -0.000000 1.000000
vn -0.000000 -0.000000 1.000000
vn -0.000000 -0.000000 1.000000
vn -0.000000 -0.000000 -1.000000
vn -0.000000 -0.000000 -1.000000
vn -0.000000 -0.000000 -1.000000
vn -0.000000 -0.000000 -1.000000
vn -0.000000 1.000000 -0.000000
vn -0.000000 1.000000 -0.000000
vn -0.000000 -0.000000 1.000000
vn -0.000000 -0.000000 1.000000
vn -1.000000 -0.000000 -0.000000
vn -1.000000 -0.000000 -0.000000
vn -1.000000 -0.000000 -0.000000
vn -1.000000 -0.000000 -0.000000
vn -0.000000 1.000000 -0.000000
vn -0.000000 1.000000 -0.000000
vn 1.000000 -0.000000 -0.000000
vn 1.000000 -0.000000 -0.000000
vn -0.417796 0.356615 -0.835627
vn -0.417796 0.356615 -0.835627
vn -0.417796 0.356615 -0.835627
vn 0.707098 0.707115 -0.000000
vn 0.707106 0.707107 -0.000016
vn 0.707109 0.707105 -0.000000
vn 0.707101 0.707113 -0.000000
vn 0.707101 0.707113 -0.000000
vn -0.000000 0.707100 -0.707114
vn -0.000000 0.707100 -0.707114
vn -0.000000 0.707100 -0.707114
vn -0.000000 0.707100 -0.707114
vn -0.000000 1.000000 -0.000000
vn -0.000000 1.000000 -0.000000
vn -0.000000 1.000000 -0.000000
vn -0.000000 1.000000 -0.000000
vn -0.000000 1.000000 -0.000000
vn -0.000000 -0.000000 -1.000000
vn -0.000000 -0.000000 -1.000000
vn -0.000000 -0.000000 -1.000000
vn -0.000000 -0.000000 -1.000000
vn -0.000000 -0.000000 -1.000000
vn 1.000000 -0.000000 -0.000000
vn 1.000000 -0.000000 -0.000000
vn 1.000000 -0.000000 -0.000000
vn 1.000000 -0.000000 -0.000000
vn 1.000000 -0.000000 -0.000000
vn 1.000000 -0.000000 -0.000000
vn -0.707104 -0.707110 -0.000000
vn -0.707104 -0.707110 -0.000000
vn -0.707104 -0.707110 -0.000000
vn -0.707104 -0.707110 -0.000000
vn -0.000000 -0.707123 0.707091
vn -0.000000 -0.707123 0.707091
vn -0.000000 -0.707123 0.707091
vn -0.000000 -0.707123 0.707091
vn -0.422913 0.801422 0.422928
vn -0.733425 0.656864 0.174977
vn -0.763042 0.634183 0.124812
vn -0.642926 0.746559 0.171160
vn -0.000515 0.110884 0.993833
vn -0.002291 0.013889 0.999901
vn -0.002289 0.011251 0.999934
vn -0.000316 0.382600 0.923914
vn -0.000000 -1.000000 -0.000000
vn -0.000000 -1.000000 -0.000000
vn -0.000000 -1.000000 -0.000000
vn -0.000000 -1.000000 -0.000000
vn 0.000000 0.707106 0.707108
vn 0.000000 0.707104 0.707110
vn -0.000000 0.707104 0.707110
vn -0.000000 0.707106 0.707108
vn -0.707109 0.707104 -0.000000
vn -0.743298 0.664278 0.079016
vn -1.000000 -0.000000 -0.000000
vn -1.000000 -0.000000 -0.000000
vn -1.000000 -0.000000 -0.000000
vn -1.000000 -0.000000 -0.000000
vn -0.000000 0.010453 0.999945
vn -0.000000 -0.000000 1.000000
vn 0.670512 0.503465 0.544919
vn 0.670512 0.503465 0.544919
vn 0.670512 0.503465 0.544919
vn -0.000000 -1.000000 -0.000000
vn -0.000000 -1.000000 -0.000000
vn -0.000000 -1.000000 -0.000000
vn -0.000000 -1.000000 -0.000000
vn -0.707109 0.707104 -0.000000
vn -0.707109 0.707104 -0.000000
vn -0.707109 0.707104 -0.000000
vn -0.707109 0.707104 -0.000000
vn -0.000000 0.707113 0.707101
vn -0.000000 0.707113 0.707101
vn -0.000000 0.707113 0.707101
vn -0.000000 0.707113 0.707101
vn 0.707105 0.707108 -0.000000
vn 0.707105 0.707108 -0.000000
vn 0.707105 0.707108 -0.000000
vn 0.707105 0.707108 -0.000000
vn -0.000000 0.707104 -0.707109
vn -0.000000 0.707104 -0.707109
vn -0.000000 0.707104 -0.707109
vn -0.000000 0.707104 -0.707109
vn -0.000000 -0.000000 1.000000
vn -0.000000 -0.000000 1.000000
vn -0.000000 -0.000000 1.000000
vn -0.000000 -0.000000 1.000000
vn -0.000000 1.000000 -0.000000
vn -0.000000 1.000000 -0.000000
vn -0.000000 1.000000 -0.000000
vn -0.000000 1.000000 -0.000000
vn -0.000000 -0.000000 -1.000000
vn -0.000000 -0.000000 -1.000000
vn -0.000000 -0.000000 -1.000000
vn -0.000000 -0.000000 -1.000000
vn 1.000000 -0.000000 -0.000000
vn 1.000000 -0.000000 -0.000000
vn 1.000000 -0.000000 -0.000000
vn 1.000000 -0.000000 -0.000000
vn -1.000000 -0.000000 -0.000000
vn -1.000000 -0.000000 -0.000000
vn -1.000000 -0.000000 -0.000000
vn -1.000000 -0.000000 -0.000000
# 218 normals

g Kyoko_san_s_wall

# 0 positions

# 0 texture coordinates

# 0 normals

usemtl initialShadingGroup
s 1
f 3/1/1 4/2/2 2/3/3 1/4/4
s 2
f 5/5/5 6/6/6 9/7/7 10/8/8
s 3
f 6/6/9 5/5/10 8/9/11 7/10/12
s 4
f 7/10/13 8/9/14 12/11/15 11/12/16
s 5
f 10/8/17 9/7/18 11/12/19 12/11/20
s 6
f 1/13/21 2/14/22 8/15/23 5/16/24
s 7
f 6/6/25 7/10/26 11/12/27 9/7/28
s 8
f 10/17/29 12/18/30 4/19/31 3/20/32
s 9
f 2/21/33 4/22/34 12/23/35 8/24/36
s 10
f 3/25/37 1/26/38 5/27/39 10/28/40
s 11
f 15/29/41 16/30/42 14/31/43 13/32/44
f 13/32/44 14/31/43 18/33/45 17/34/46
f 18/33/45 14/31/43 19/35/47 20/36/48
s 12
f 21/37/49 23/38/50 32/39/51 31/40/52
f 23/38/50 22/45/57 27/46/58 28/47/59
f 21/37/49 22/45/57 23/38/50
s 13
f 22/41/53 21/42/54 26/43/55 25/44/56
f 22/41/53 25/44/56 29/72/86 27/73/87
f 26/43/55 21/42/54 31/82/104 33/83/105
f 26/43/55 33/83/105 37/87/112 36/88/113
s 14
f 24/48/60 26/49/61 36/50/62 35/51/63
s 15
f 25/52/64 24/53/65 30/54/66 29/55/67
s 16
f 28/56/68 27/57/69 29/58/70 30/59/71
s 17
f 31/60/72 32/61/73 34/62/74 33/63/75
f 33/63/75 34/62/74 38/64/76 37/65/77
s 18
f 35/66/78 36/67/79 37/68/80 38/69/81
s 19
f 17/70/82 18/71/83 34/62/84 32/61/85
f 34/62/84 18/71/83 20/89/114 38/64/115
s 20
f 28/56/88 30/59/89 16/74/90 15/75/91
s 21
f 14/76/92 16/77/93 30/54/94 24/53/95
s 22
f 15/78/96 13/79/97 23/38/98 28/47/99
f 23/38/98 13/79/97 17/84/106 32/39/107
s 23
f 19/80/100 35/66/101 38/69/102 20/81/103
s 24
f 14/85/108 24/48/109 35/51/110 19/86/111
s 25
f 24/53/116 25/52/117 26/90/118
s 26
f 40/91/119 57/92/120 56/93/121 42/94/122 41/95/123
s 27
f 41/96/124 42/97/125 44/98/126 43/99/127
s 28
f 40/100/128 41/96/129 43/99/130 51/101/131 52/102/132
s 29
f 39/103/133 48/104/134 47/105/135 44/106/136 42/107/137
s 30
f 49/108/138 50/109/139 39/110/140 42/94/141 56/93/142 55/111/143
s 31
f 45/112/144 46/113/145 47/114/146 48/115/147
s 32
f 46/113/148 45/112/149 50/116/150 49/117/151
s 33
f 52/102/152 51/101/153 54/118/154 53/119/155
f 54/118/154 51/101/153 43/99/168 44/98/169
s 34
f 53/120/156 54/121/157 55/122/158 57/123/159
f 46/130/174 49/131/175 55/122/158 54/121/157
s 35
f 45/112/160 48/115/161 39/124/162 50/116/163
s 36
f 53/119/164 57/125/165 40/100/166 52/102/167
s 37
f 54/126/170 44/127/171 47/128/172 46/129/173
s 38
f 55/111/176 56/93/177 57/92/178
s 39
f 60/132/179 61/133/180 59/134/181 58/135/182
s 40
f 62/136/183 63/137/184 66/138/185 67/139/186
s 41
f 63/137/187 62/136/188 65/140/189 64/141/190
s 42
f 64/141/191 65/140/192 69/142/193 68/143/194
s 43
f 67/139/195 66/138/196 68/143/197 69/142/198
s 44
f 58/144/199 59/145/200 65/146/201 62/147/202
s 45
f 63/137/203 64/141/204 68/143/205 66/138/206
s 46
f 67/148/207 69/149/208 61/150/209 60/151/210
s 47
f 59/152/211 61/153/212 69/154/213 65/155/214
s 48
f 60/156/215 58/157/216 62/158/217 67/159/218

# 60 faces
