# Wavefront Obj file
# 
# verts: 8 uv-s: 24
mtllib Road UV.mtl

g default

v -9.267714 -0.628186 172.497101
v 8.022848 -0.628186 172.497101
v -9.267714 -0.128186 172.497101
v 8.022848 -0.128186 172.497101
v -9.267714 -0.128186 45.197548
v 8.022848 -0.128186 45.197548
v -9.267714 -0.628186 45.197548
v 8.022848 -0.628186 45.197548
# 8 positions

vt 0.331737 0.156364
vt 0.331737 0.289474
vt 0.335586 0.289474
vt 0.335586 0.156364
vt 0.010000 0.990000
vt 0.143109 0.990000
vt 0.143109 0.010000
vt 0.010000 0.010000
vt 0.331737 0.010000
vt 0.331737 0.143109
vt 0.335586 0.143109
vt 0.335586 0.010000
vt 0.156364 0.990000
vt 0.289474 0.990000
vt 0.289474 0.010000
vt 0.156364 0.010000
vt 0.301866 0.010000
vt 0.301866 0.989998
vt 0.305716 0.989998
vt 0.305716 0.010000
vt 0.320651 0.989998
vt 0.320651 0.010000
vt 0.316802 0.010000
vt 0.316802 0.989998
# 24 texture coordinates

vn -0.000000 -0.000000 1.000000
vn -0.000000 -0.000000 1.000000
vn -0.000000 -0.000000 1.000000
vn -0.000000 -0.000000 1.000000
vn -0.000000 1.000000 -0.000000
vn -0.000000 1.000000 -0.000000
vn -0.000000 1.000000 -0.000000
vn -0.000000 1.000000 -0.000000
vn -0.000000 -0.000000 -1.000000
vn -0.000000 -0.000000 -1.000000
vn -0.000000 -0.000000 -1.000000
vn -0.000000 -0.000000 -1.000000
vn -0.000000 -1.000000 -0.000000
vn -0.000000 -1.000000 -0.000000
vn -0.000000 -1.000000 -0.000000
vn -0.000000 -1.000000 -0.000000
vn 1.000000 -0.000000 -0.000000
vn 1.000000 -0.000000 -0.000000
vn 1.000000 -0.000000 -0.000000
vn 1.000000 -0.000000 -0.000000
vn -1.000000 -0.000000 -0.000000
vn -1.000000 -0.000000 -0.000000
vn -1.000000 -0.000000 -0.000000
vn -1.000000 -0.000000 -0.000000
# 24 normals

g Road_3

# 0 positions

# 0 texture coordinates

# 0 normals

usemtl initialShadingGroup
s 1
f 1/1/1 2/2/2 4/3/3 3/4/4
s 2
f 3/5/5 4/6/6 6/7/7 5/8/8
s 3
f 5/9/9 6/10/10 8/11/11 7/12/12
s 4
f 7/13/13 8/14/14 2/15/15 1/16/16
s 5
f 2/17/17 8/18/18 6/19/19 4/20/20
s 6
f 7/21/21 1/22/22 3/23/23 5/24/24

# 6 faces
