# Wavefront Obj file
# 
# verts: 66 uv-s: 126
mtllib Rubish bag 1 UV.mtl

g default

v -49.829655 0.698147 146.458817
v -51.037819 0.698147 145.958420
v -52.245975 0.698147 146.458817
v -52.746426 0.698147 147.667007
v -52.245975 0.698147 148.875168
v -51.037819 0.698147 149.375595
v -49.829655 0.698147 148.875168
v -49.329205 0.698147 147.667007
v -48.805408 1.354613 145.434586
v -51.037819 1.354613 144.509888
v -53.270226 1.354613 145.434586
v -54.194920 1.354613 147.667007
v -53.270226 1.354613 149.899384
v -51.037819 1.354613 150.824097
v -48.338856 1.354613 150.541931
v -46.948380 1.354613 148.033844
v -48.522724 2.727384 145.385025
v -51.134377 2.727384 144.303238
v -53.746025 2.727384 145.385025
v -54.171551 2.727384 148.625656
v -53.070927 2.727384 150.660553
v -51.111008 2.727384 150.902267
v -48.148396 2.727384 150.727432
v -46.910545 2.727384 148.437241
v -49.191536 4.346678 145.753662
v -51.250614 4.277073 144.748627
v -53.581768 4.158108 145.555542
v -54.321907 4.346678 147.667007
v -52.851738 4.346678 151.098846
v -51.037815 4.346678 150.948837
v -48.715614 4.346678 149.989197
v -47.753727 4.346678 147.667007
v -49.066452 5.965971 145.556671
v -50.904999 6.392206 144.596466
v -53.049820 6.277758 146.113998
v -53.878761 6.620763 148.077927
v -52.977776 5.965971 149.927780
v -50.970524 5.965971 151.245407
v -48.539120 5.890263 149.857193
v -47.611576 5.886581 147.701569
v -49.395767 7.338742 146.024948
v -51.037815 7.993535 145.344788
v -52.679863 7.993535 146.024948
v -53.360012 8.650712 147.667007
v -52.679863 8.040189 149.309036
v -51.037815 7.338742 149.989197
v -49.194160 7.514901 149.244232
v -48.715614 7.938993 147.667007
v -50.766445 8.256000 147.395630
v -51.037815 8.256000 147.283234
v -51.309185 8.256000 147.395630
v -51.421589 8.256000 147.667007
v -51.309185 8.256000 147.938370
v -51.037815 8.256000 148.050766
v -50.766445 8.256000 147.938370
v -50.654041 8.256000 147.667007
v -51.037819 0.521601 147.667007
v -49.927517 9.557757 146.520218
v -51.008797 8.893198 146.721832
v -51.037815 8.888809 147.667007
v -51.331715 8.775758 147.209015
v -51.778664 9.534753 147.818619
v -52.157761 9.837336 148.827789
v -51.148945 9.571118 148.728241
v -50.667915 8.845517 147.967957
v -50.316597 9.118775 147.705429
# 66 positions

vt 0.799384 0.271134
vt 0.725696 0.270483
vt 0.689637 0.351665
vt 0.832078 0.353452
vt 0.673679 0.218096
vt 0.590694 0.250413
vt 0.673763 0.144492
vt 0.591920 0.109318
vt 0.725705 0.092567
vt 0.691869 0.010263
vt 0.799201 0.092539
vt 0.832078 0.010000
vt 0.851668 0.144521
vt 0.968563 0.086223
vt 0.851736 0.219096
vt 0.987992 0.250826
vt 0.311172 0.353498
vt 0.171779 0.353402
vt 0.166568 0.431549
vt 0.325126 0.433651
vt 0.032173 0.353498
vt 0.010000 0.434934
vt 0.436545 0.343689
vt 0.423590 0.208072
vt 0.342711 0.160503
vt 0.354476 0.344931
vt 0.415972 0.070206
vt 0.334467 0.030798
vt 0.691275 0.792015
vt 0.827098 0.776984
vt 0.821525 0.698989
vt 0.709171 0.704471
vt 0.979786 0.776360
vt 0.990000 0.698053
vt 0.342402 0.679520
vt 0.506083 0.699004
vt 0.492127 0.621552
vt 0.349335 0.598762
vt 0.684754 0.698729
vt 0.679614 0.619110
vt 0.159960 0.521454
vt 0.292619 0.532836
vt 0.019396 0.517381
vt 0.256493 0.218717
vt 0.270931 0.343689
vt 0.239643 0.010000
vt 0.820779 0.610341
vt 0.715504 0.610037
vt 0.964847 0.595330
vt 0.540794 0.522566
vt 0.395412 0.499721
vt 0.679927 0.518374
vt 0.176786 0.636451
vt 0.291965 0.625689
vt 0.034501 0.644905
vt 0.126965 0.202873
vt 0.142027 0.324579
vt 0.149092 0.082359
vt 0.817054 0.521336
vt 0.691275 0.488835
vt 0.967212 0.498432
vt 0.542197 0.437879
vt 0.417452 0.416115
vt 0.684754 0.422161
vt 0.167052 0.733514
vt 0.277577 0.712794
vt 0.066319 0.740519
vt 0.010000 0.228297
vt 0.042158 0.331355
vt 0.030945 0.123111
vt 0.814569 0.422523
vt 0.721890 0.367459
vt 0.925817 0.399423
vt 0.555148 0.309221
vt 0.455120 0.314454
vt 0.662577 0.337179
vt 0.491967 0.769973
vt 0.414405 0.697089
vt 0.365496 0.796410
vt 0.377038 0.808429
vt 0.314896 0.690370
vt 0.348772 0.795671
vt 0.234123 0.759560
vt 0.335767 0.806212
vt 0.233969 0.865041
vt 0.335829 0.822888
vt 0.302274 0.947828
vt 0.347126 0.835139
vt 0.414483 0.947828
vt 0.363665 0.836007
vt 0.475355 0.874056
vt 0.375943 0.824934
vt 0.762960 0.181763
vt 0.439450 0.213796
vt 0.491725 0.163816
vt 0.464628 0.116611
vt 0.493291 0.130516
vt 0.500000 0.071388
vt 0.484483 0.010000
vt 0.439450 0.048164
vt 0.437540 0.112796
vt 0.427782 0.139966
vt 0.542172 0.170977
vt 0.526119 0.166873
vt 0.504266 0.209537
vt 0.542172 0.271331
vt 0.514998 0.154590
vt 0.493897 0.177544
vt 0.010000 0.033588
vt 0.018761 0.047652
vt 0.089625 0.021944
vt 0.030390 0.010000
vt 0.024452 0.063214
vt 0.137442 0.063214
vt 0.333320 0.465852
vt 0.349391 0.469887
vt 0.378225 0.391324
vt 0.333320 0.352863
vt 0.362579 0.479918
vt 0.386411 0.456009
vt 0.458305 0.299180
vt 0.471270 0.288863
vt 0.444356 0.244013
vt 0.437746 0.272404
vt 0.486766 0.282996
vt 0.486766 0.182642
# 126 texture coordinates

vn 0.168528 -0.897793 -0.406897
vn 0.168521 -0.897803 -0.406879
vn 0.168535 -0.897801 -0.406878
vn 0.168539 -0.897796 -0.406888
vn -0.168522 -0.897803 -0.406879
vn -0.168529 -0.897794 -0.406896
vn -0.168539 -0.897796 -0.406887
vn -0.168535 -0.897801 -0.406878
vn -0.406885 -0.897797 -0.168538
vn -0.406887 -0.897796 -0.168538
vn -0.406887 -0.897797 -0.168537
vn -0.406886 -0.897797 -0.168537
vn -0.406886 -0.897796 0.168542
vn -0.406884 -0.897797 0.168541
vn -0.406885 -0.897797 0.168540
vn -0.406886 -0.897796 0.168540
vn -0.168538 -0.897793 0.406893
vn -0.168535 -0.897798 0.406885
vn -0.168541 -0.897797 0.406885
vn -0.168543 -0.897794 0.406889
vn 0.168534 -0.897798 0.406885
vn 0.113665 -0.954870 0.274417
vn 0.035405 -0.940244 0.338655
vn 0.043115 -0.909979 0.412406
vn 0.286163 -0.950821 0.118536
vn 0.249554 -0.962828 0.103371
vn 0.243949 -0.960311 0.135244
vn 0.259595 -0.954934 0.143918
vn 0.280613 -0.952757 -0.116234
vn 0.406886 -0.897797 -0.168538
vn 0.339702 -0.908680 -0.242699
vn 0.289555 -0.934538 -0.206872
vn 0.380300 -0.111459 -0.918122
vn 0.380300 -0.111460 -0.918122
vn 0.380301 -0.111460 -0.918122
vn 0.380301 -0.111459 -0.918122
vn -0.377519 -0.163752 -0.911408
vn -0.377520 -0.163752 -0.911408
vn -0.377520 -0.163752 -0.911408
vn -0.377520 -0.163752 -0.911408
vn -0.876286 -0.316823 -0.362968
vn -0.888976 0.272275 -0.368224
vn -0.985778 0.107174 -0.129442
vn -0.936306 -0.328960 -0.122946
vn -0.895972 -0.243919 0.371129
vn -0.921075 -0.077826 0.381528
vn -0.871550 -0.134848 0.471399
vn -0.838402 -0.302400 0.453471
vn -0.348104 -0.415433 0.840380
vn -0.381675 -0.072818 0.921424
vn -0.122159 -0.062916 0.990514
vn -0.108037 -0.470041 0.876008
vn 0.103844 -0.051025 0.993284
vn 0.102847 -0.147201 0.983745
vn 0.058318 -0.141626 0.988201
vn 0.058827 -0.053627 0.996827
vn 0.859707 -0.183682 0.476619
vn 0.862699 -0.164321 0.478278
vn 0.868128 -0.161810 0.469224
vn 0.864840 -0.183155 0.467447
vn 0.804858 0.146793 -0.575027
vn 0.799584 -0.185276 -0.571260
vn 0.867235 -0.195121 -0.458073
vn 0.878651 0.112163 -0.464103
vn 0.359094 0.345674 -0.866926
vn 0.367124 0.282267 -0.886310
vn 0.413428 0.280021 -0.866409
vn 0.399898 0.357317 -0.844042
vn -0.372385 0.230449 -0.899012
vn -0.378224 0.152249 -0.913108
vn -0.330233 0.148999 -0.932065
vn -0.328526 0.238048 -0.914004
vn -0.983297 0.128278 -0.129116
vn -0.977604 -0.166770 -0.128369
vn -0.917836 -0.261850 -0.298347
vn -0.929265 0.147074 -0.338873
vn -0.862507 0.196094 0.466508
vn -0.879542 -0.009708 0.475722
vn -0.919059 0.017837 0.393717
vn -0.909330 0.146185 0.389549
vn -0.118689 -0.244421 0.962378
vn -0.122369 -0.023004 0.992218
vn 0.082374 -0.032370 0.996076
vn 0.079346 -0.270437 0.959462
vn 0.058882 -0.031357 0.997772
vn 0.053198 0.429605 0.901449
vn 0.333920 0.485353 0.808041
vn 0.381554 -0.043800 0.923308
vn 0.778925 0.464786 0.421010
vn 0.726027 0.564706 0.392418
vn 0.769979 0.552641 0.318937
vn 0.826973 0.445845 0.342545
vn 0.860151 0.231782 -0.454331
vn 0.799776 0.426499 -0.422441
vn 0.724358 0.423097 -0.544329
vn 0.792714 0.129425 -0.595696
vn 0.438071 -0.141828 -0.887681
vn 0.438286 -0.135539 -0.888557
vn 0.433927 -0.134986 -0.890778
vn 0.432244 -0.141727 -0.890550
vn -0.326399 -0.014657 -0.945118
vn -0.324682 0.316325 -0.891359
vn -0.555301 0.339394 -0.759245
vn -0.578486 0.035902 -0.814902
vn -0.887536 0.312046 -0.338979
vn -0.909568 0.238710 -0.340153
vn -0.876988 0.245532 -0.413045
vn -0.850442 0.322857 -0.415345
vn -0.913894 0.107345 0.391504
vn -0.898994 0.208545 0.385121
vn -0.811784 0.299400 0.501364
vn -0.882778 0.088661 0.461348
vn 0.066658 0.588107 0.806031
vn 0.081028 -0.182816 0.979802
vn -0.544163 -0.129211 0.828970
vn -0.478419 0.489839 0.728816
vn 0.375539 -0.182042 0.908753
vn 0.381682 0.035344 0.923618
vn 0.496162 0.017502 0.868054
vn 0.483827 -0.177075 0.857062
vn 0.921433 -0.072718 0.381672
vn 0.919835 -0.093463 0.381010
vn 0.914512 -0.093255 0.393665
vn 0.916208 -0.071035 0.394356
vn 0.797988 -0.060205 -0.599659
vn 0.792269 -0.133627 -0.595361
vn 0.818152 -0.131301 -0.559810
vn 0.824816 -0.063531 -0.561821
vn 0.495811 0.384551 -0.778648
vn 0.495399 0.401150 -0.770492
vn 0.482806 0.403302 -0.777333
vn 0.479902 0.384176 -0.788735
vn -0.559747 0.312271 -0.767574
vn -0.578542 0.082630 -0.811457
vn -0.382456 0.034544 -0.923328
vn -0.355314 0.371391 -0.857800
vn -0.896424 0.172090 -0.408422
vn -0.901598 0.148130 -0.406421
vn -0.893180 0.141867 -0.426737
vn -0.885069 0.168316 -0.433962
vn -0.807787 0.308152 0.502516
vn -0.825903 0.266788 0.496697
vn -0.855316 0.257038 0.449852
vn -0.833928 0.306068 0.459223
vn -0.521402 0.311827 0.794295
vn -0.441521 0.593853 0.672606
vn -0.017571 0.674519 0.738048
vn -0.248048 0.309464 0.917989
vn 0.400014 0.629323 0.666289
vn 0.449077 0.468185 0.761008
vn 0.299908 0.440228 0.846318
vn 0.224813 0.663786 0.713335
vn 0.815481 0.460887 0.350106
vn 0.821568 0.447880 0.352747
vn 0.816456 0.445378 0.367476
vn 0.805311 0.463948 0.369088
vn 0.764370 0.402692 -0.503564
vn 0.777650 0.361913 -0.514081
vn 0.811525 0.353409 -0.465327
vn 0.779197 0.411182 -0.473056
vn 0.424966 0.889099 -0.170018
vn 0.410924 0.903426 -0.122324
vn 0.055487 0.989431 -0.133969
vn 0.174443 0.890046 -0.421175
vn -0.055492 0.989431 -0.133969
vn -0.055492 0.989430 -0.133969
vn -0.055489 0.989430 -0.133972
vn -0.055487 0.989431 -0.133969
vn 0.138433 0.937920 -0.318030
vn 0.190609 0.936077 -0.295681
vn 0.198853 0.976562 0.082364
vn -0.133971 0.989430 -0.055490
vn 0.192057 0.943186 0.271134
vn 0.143323 0.945556 0.292201
vn -0.110533 0.992817 0.045785
vn 0.198853 0.976562 -0.082369
vn 0.230178 0.899332 0.371779
vn 0.204542 0.884798 0.418683
vn -0.174440 0.890050 0.421168
vn -0.045782 0.992817 0.110536
vn 0.086142 0.900549 0.426136
vn 0.081507 0.905753 0.415894
vn 0.145124 0.925293 0.350388
vn 0.174440 0.890050 0.421168
vn 0.184938 0.933527 0.307124
vn 0.153967 0.941475 0.299864
vn 0.161035 0.984692 0.066704
vn 0.327872 0.934909 0.135812
vn 0.148396 0.907412 -0.393169
vn 0.191843 0.893478 -0.406071
vn 0.421171 0.890047 -0.174448
vn 0.161035 0.984692 -0.066700
vn 0.042531 -0.993804 -0.102688
vn 0.042531 -0.993804 -0.102688
vn 0.042531 -0.993804 -0.102688
vn -0.042532 -0.993804 -0.102688
vn -0.042532 -0.993804 -0.102688
vn -0.042532 -0.993804 -0.102688
vn -0.102687 -0.993804 -0.042535
vn -0.102687 -0.993804 -0.042535
vn -0.102687 -0.993804 -0.042535
vn -0.102687 -0.993804 0.042536
vn -0.102687 -0.993804 0.042536
vn -0.102687 -0.993804 0.042536
vn -0.042534 -0.993804 0.102688
vn -0.042534 -0.993804 0.102688
vn -0.042534 -0.993804 0.102688
vn 0.042534 -0.993804 0.102688
vn 0.042534 -0.993804 0.102688
vn 0.042534 -0.993804 0.102688
vn 0.102687 -0.993804 0.042535
vn 0.102687 -0.993804 0.042535
vn 0.102687 -0.993804 0.042535
vn 0.102687 -0.993804 -0.042534
vn 0.102687 -0.993804 -0.042534
vn 0.102687 -0.993804 -0.042534
vn -0.525223 0.850878 -0.012174
vn -0.525223 0.850878 -0.012174
vn -0.525223 0.850878 -0.012174
vn -0.350297 0.936617 -0.006406
vn -0.350297 0.936617 -0.006406
vn -0.350297 0.936617 -0.006406
vn 0.508934 0.700976 -0.499619
vn 0.508934 0.700976 -0.499619
vn 0.508934 0.700976 -0.499619
vn 0.659629 0.751254 0.022540
vn 0.659629 0.751254 0.022540
vn 0.659629 0.751254 0.022540
vn 0.169516 0.836953 -0.520359
vn 0.169516 0.836953 -0.520359
vn 0.169516 0.836953 -0.520359
vn 0.454327 0.770209 -0.447622
vn 0.454327 0.770209 -0.447622
vn 0.454327 0.770209 -0.447622
vn -0.290085 0.830238 0.475978
vn -0.290085 0.830238 0.475978
vn -0.290085 0.830238 0.475978
vn -0.306478 0.920992 0.240509
vn -0.306478 0.920992 0.240509
vn -0.306478 0.920992 0.240509
vn 0.288993 -0.655466 -0.697745
vn 0.294243 -0.639314 -0.710421
vn 0.262292 -0.644623 -0.718098
vn 0.267121 -0.650359 -0.711111
vn -0.299307 -0.623055 -0.722647
vn -0.361365 -0.328922 -0.872482
vn -0.781315 -0.240634 -0.575884
vn -0.681627 -0.465984 -0.564131
vn -0.909675 -0.174713 -0.376785
vn -0.903686 -0.207964 -0.374304
vn -0.892482 -0.201356 -0.403648
vn -0.889034 -0.188364 -0.417297
vn -0.884094 -0.290290 0.366210
vn -0.752953 -0.579471 0.311889
vn -0.905407 -0.354311 -0.233884
vn -0.932165 -0.226842 -0.282155
vn -0.309806 -0.586958 0.747998
vn -0.341123 -0.453103 0.823610
vn -0.033818 -0.459946 0.887303
vn -0.049774 -0.509777 0.858865
vn 0.349786 -0.405494 0.844526
vn 0.380350 -0.109659 0.918319
vn 0.758978 -0.158548 0.631518
vn 0.644848 -0.306250 0.700273
vn 0.910260 -0.171061 0.377048
vn 0.864088 -0.353897 0.357923
vn 0.711136 -0.306317 0.632816
vn 0.663168 -0.147665 0.733760
vn 0.873557 -0.325548 -0.361825
vn 0.702991 -0.648860 -0.291177
vn 0.866267 -0.488776 0.103343
vn 0.915975 -0.365612 0.165279
# 272 normals

g Trash_Bag2

# 0 positions

# 0 texture coordinates

# 0 normals

usemtl initialShadingGroup
s 1
f 1/1/1 2/2/2 10/3/3 9/4/4
s 2
f 2/2/5 3/5/6 11/6/7 10/3/8
s 3
f 3/5/9 4/7/10 12/8/11 11/6/12
s 4
f 4/7/13 5/9/14 13/10/15 12/8/16
s 5
f 5/9/17 6/11/18 14/12/19 13/10/20
s 6
f 6/11/21 7/13/22 15/14/23 14/12/24
s 7
f 7/13/25 8/15/26 16/16/27 15/14/28
s 8
f 8/15/29 1/1/30 9/4/31 16/16/32
s 9
f 9/17/33 10/18/34 18/19/35 17/20/36
s 10
f 10/18/37 11/21/38 19/22/39 18/19/40
s 11
f 11/23/41 12/24/42 20/25/43 19/26/44
s 12
f 12/24/45 13/27/46 21/28/47 20/25/48
s 13
f 13/29/49 14/30/50 22/31/51 21/32/52
s 14
f 14/30/53 15/33/54 23/34/55 22/31/56
s 15
f 15/35/57 16/36/58 24/37/59 23/38/60
s 16
f 16/36/61 9/39/62 17/40/63 24/37/64
s 17
f 17/20/65 18/19/66 26/41/67 25/42/68
s 18
f 18/19/69 19/22/70 27/43/71 26/41/72
s 19
f 19/26/73 20/25/74 28/44/75 27/45/76
s 20
f 20/25/77 21/28/78 29/46/79 28/44/80
s 21
f 21/32/81 22/31/82 30/47/83 29/48/84
s 22
f 22/31/85 23/34/86 31/49/87 30/47/88
s 23
f 23/38/89 24/37/90 32/50/91 31/51/92
s 24
f 24/37/93 17/40/94 25/52/95 32/50/96
s 25
f 25/42/97 26/41/98 34/53/99 33/54/100
s 26
f 26/41/101 27/43/102 35/55/103 34/53/104
s 27
f 27/45/105 28/44/106 36/56/107 35/57/108
s 28
f 28/44/109 29/46/110 37/58/111 36/56/112
s 29
f 29/48/113 30/47/114 38/59/115 37/60/116
s 30
f 30/47/117 31/49/118 39/61/119 38/59/120
s 31
f 31/51/121 32/50/122 40/62/123 39/63/124
s 32
f 32/50/125 25/52/126 33/64/127 40/62/128
s 33
f 33/54/129 34/53/130 42/65/131 41/66/132
s 34
f 34/53/133 35/55/134 43/67/135 42/65/136
s 35
f 35/57/137 36/56/138 44/68/139 43/69/140
s 36
f 36/56/141 37/58/142 45/70/143 44/68/144
s 37
f 37/60/145 38/59/146 46/71/147 45/72/148
s 38
f 38/59/149 39/61/150 47/73/151 46/71/152
s 39
f 39/63/153 40/62/154 48/74/155 47/75/156
s 40
f 40/62/157 33/64/158 41/76/159 48/74/160
s 41
f 41/77/161 42/78/162 50/79/163 49/80/164
s 42
f 42/78/165 43/81/166 51/82/167 50/79/168
s 43
f 43/81/169 44/83/170 52/84/171 51/82/172
s 44
f 44/83/173 45/85/174 53/86/175 52/84/176
s 45
f 45/85/177 46/87/178 54/88/179 53/86/180
s 46
f 46/87/181 47/89/182 55/90/183 54/88/184
s 47
f 47/89/185 48/91/186 56/92/187 55/90/188
s 48
f 48/91/189 41/77/190 49/80/191 56/92/192
s 49
f 2/2/193 1/1/194 57/93/195
s 50
f 3/5/196 2/2/197 57/93/198
s 51
f 4/7/199 3/5/200 57/93/201
s 52
f 5/9/202 4/7/203 57/93/204
s 53
f 6/11/205 5/9/206 57/93/207
s 54
f 7/13/208 6/11/209 57/93/210
s 55
f 8/15/211 7/13/212 57/93/213
s 56
f 1/1/214 8/15/215 57/93/216
s 57
f 58/94/217 59/95/218 60/96/219
s 58
f 59/95/220 61/97/221 60/96/222
s 59
f 61/97/223 62/98/224 60/96/225
s 60
f 62/98/226 63/99/227 60/96/228
s 61
f 63/99/229 64/100/230 60/96/231
s 62
f 64/100/232 65/101/233 60/96/234
s 63
f 65/101/235 66/102/236 60/96/237
s 64
f 66/102/238 58/94/239 60/96/240
s 65
f 49/103/241 50/104/242 59/105/243 58/106/244
s 66
f 50/104/245 51/107/246 61/108/247 59/105/248
s 67
f 51/109/249 52/110/250 62/111/251 61/112/252
s 68
f 52/110/253 53/113/254 63/114/255 62/111/256
s 69
f 53/115/257 54/116/258 64/117/259 63/118/260
s 70
f 54/116/261 55/119/262 65/120/263 64/117/264
s 71
f 55/121/265 56/122/266 66/123/267 65/124/268
s 72
f 56/122/269 49/125/270 58/126/271 66/123/272

# 72 faces
